<svg width="609" height="660" viewBox="0 0 609 660" fill="none" xmlns="http://www.w3.org/2000/svg">
<path d="M92.6656 604.52H79.2943L123.348 318.653L135.88 330.842L92.6656 604.52Z" fill="#0E538C"/>
<path d="M224.609 604.52H238.005L195.964 318.653L183.43 330.842L224.609 604.52Z" fill="#0E538C"/>
<path d="M153.397 339.401H166.329L165.312 604.52H152.38L153.397 339.401Z" fill="#0E538C"/>
<path d="M153.397 0H166.329V46.8557H153.397V0Z" fill="#0E538C"/>
<path d="M131.536 323.558H188.191V334.298H179.157V339.667H140.57V334.298H131.536V323.558Z" fill="#FFBE55"/>
<path d="M82.8909 318.4H236.837V326.757H82.8909V318.4Z" fill="#0E538C"/>
<path d="M180.197 37.8423L139.531 37.8423V26.9744L180.197 26.9744V37.8423Z" fill="#0E538C"/>
<path d="M173.712 32.4071H146.016V21.5392L173.712 21.5392V32.4071Z" fill="#0E538C"/>
<path d="M51.7881 37.8057H267.938C269.377 37.8057 270.544 38.973 270.544 40.4124V315.793C270.544 317.232 269.377 318.4 267.938 318.4H51.7881C50.3492 318.4 49.1823 317.232 49.1823 315.793V40.4124C49.1823 38.973 50.3492 37.8057 51.7881 37.8057Z" fill="#F5F5F5"/>
<path d="M162.399 187.048C162.399 187.048 166.836 162.684 153.732 150.17C143.421 140.143 137.28 144.369 126.849 135.688C116.419 127.007 100.459 100.123 87.0869 102.059C73.7145 103.994 77.7036 123.631 80.1059 134.389C82.9357 147.065 74.8418 157.999 72.085 169.827C69.8474 179.43 69.7472 190.708 74.5017 199.745C79.6305 209.494 94.4986 212.311 96.3556 223.717C98.1285 234.607 78.7094 252.144 90.3383 269.685C104.04 290.351 131.37 302.241 155.624 295.337C178.267 288.891 197.808 259.409 183.349 237.585C171.736 216.329 156.762 222.883 162.399 187.048Z" fill="#FFCB0C"/>
<path d="M97.1285 130.11C104.217 141.785 110.666 153.898 116.652 166.19C122.617 178.5 128.071 191.058 132.75 203.886C137.411 216.711 141.367 229.813 143.876 243.166C145.162 249.832 146.055 256.568 146.379 263.309C146.72 270.045 146.547 276.797 145.567 283.407L145.564 283.429C145.39 284.6 146.199 285.691 147.369 285.864C148.54 286.038 149.63 285.229 149.803 284.058C149.804 284.051 149.807 284.032 149.808 284.025C150.732 277.042 150.794 270.019 150.333 263.073C149.888 256.12 148.862 249.239 147.444 242.463C144.67 228.891 140.454 215.705 135.548 202.84C130.624 189.973 124.937 177.428 118.748 165.153C112.531 152.886 105.887 140.861 98.5549 129.204C98.3065 128.809 97.7852 128.691 97.3902 128.939C96.9995 129.185 96.8791 129.699 97.1178 130.092L97.1285 130.11Z" fill="#CCE9FF"/>
<path d="M118.231 191.299C115.755 188.852 112.765 187.14 109.67 185.742C106.562 184.327 103.15 183.788 99.8193 183.206C96.481 182.616 93.0915 182.34 89.7191 182.319C86.3424 182.29 82.9812 182.737 79.7089 183.368C79.6172 183.386 79.5576 183.474 79.5752 183.566C79.5911 183.649 79.6642 183.705 79.7458 183.703L79.7564 183.702C83.0787 183.61 86.3696 183.528 89.6279 184.006C92.8826 184.359 96.1031 184.955 99.2405 185.846C102.395 186.693 105.375 188.019 108.496 188.911C111.621 189.837 114.732 190.805 118.06 191.589L118.069 191.591C118.163 191.613 118.256 191.556 118.278 191.462C118.292 191.402 118.273 191.34 118.231 191.299ZM138.42 183.188C139.806 181.298 140.801 179.417 141.775 177.526C142.768 175.659 143.262 173.579 144.16 171.648C145.021 169.704 146.062 167.841 147.235 166.053C148.338 164.2 149.736 162.568 151.15 160.894L151.156 160.887C151.216 160.815 151.207 160.708 151.137 160.648C151.076 160.597 150.99 160.595 150.928 160.639C149.14 161.922 147.421 163.367 145.904 165.013C144.404 166.669 143.013 168.446 141.795 170.338C140.585 172.225 139.217 174.101 138.626 176.3C138.027 178.477 137.669 180.757 138.088 183.121C138.106 183.22 138.2 183.286 138.299 183.268C138.346 183.26 138.386 183.234 138.413 183.198L138.42 183.188ZM141.75 268.429C139.513 265.95 136.772 264.14 133.919 262.598C131.058 261.039 127.85 260.289 124.731 259.457C121.604 258.619 118.408 258.049 115.208 257.672C112 257.317 108.763 257.327 105.58 257.553C105.487 257.56 105.417 257.641 105.423 257.734C105.429 257.817 105.494 257.882 105.575 257.89L105.584 257.891C108.75 258.205 111.879 258.55 114.931 259.338C117.989 260.035 121 260.909 123.918 262.035C126.856 263.12 129.598 264.631 132.532 265.679C135.466 266.76 138.396 267.85 141.566 268.712C141.658 268.742 141.756 268.691 141.786 268.6C141.805 268.541 141.785 268.473 141.75 268.429ZM155.812 264.788C157.541 262.845 158.928 260.887 160.318 258.94C161.726 257.024 162.711 254.841 164.117 252.902C165.48 250.936 167.104 249.174 168.854 247.531C170.574 245.831 172.595 244.498 174.698 243.212L174.708 243.206C174.788 243.158 174.813 243.053 174.764 242.974C174.722 242.905 174.639 242.877 174.565 242.902C172.216 243.705 169.908 244.782 167.807 246.205C165.745 247.664 163.765 249.3 162.038 251.174C160.314 253.033 158.477 254.903 157.4 257.237C156.321 259.548 155.5 262.012 155.493 264.677C155.492 264.776 155.572 264.856 155.671 264.856C155.724 264.856 155.771 264.833 155.804 264.797L155.812 264.788Z" fill="#CCE9FF"/>
<path d="M235.105 129.648C235.105 129.648 255.521 143.657 255.173 161.776C255.027 176.16 247.703 177.545 246.518 191.066C245.332 204.587 253.171 234.855 242.379 242.988C231.587 251.121 220.461 234.458 214.518 225.175C207.515 214.238 194.055 212.284 183.719 205.912C175.328 200.738 167.254 192.865 164.188 183.124C160.882 172.616 169.354 160.074 162.568 150.722C156.087 141.793 129.965 143.232 125.707 122.62C120.691 98.3349 131.501 70.5527 153.482 58.1923C174.004 46.6526 208.69 53.5408 213.995 79.1791C220.901 102.396 205.704 108.413 235.105 129.648Z" fill="#FFCB0C"/>
<path d="M229.544 216.1C226.251 202.843 222.196 189.733 217.688 176.824C213.154 163.919 208.082 151.202 202.274 138.844C196.455 126.502 189.944 114.464 182.234 103.279C178.408 97.6701 174.257 92.2923 169.701 87.314C165.16 82.3281 160.247 77.6958 154.865 73.7358L154.847 73.7225C153.894 73.0208 153.69 71.6793 154.391 70.7254C155.093 69.7721 156.434 69.5674 157.387 70.269C157.393 70.2733 157.408 70.285 157.414 70.2893C163.021 74.5516 168.049 79.4537 172.653 84.6726C177.274 89.8855 181.435 95.4605 185.245 101.239C192.924 112.768 199.311 125.048 204.988 137.593C210.65 150.152 215.548 163.025 219.901 176.066C224.228 189.12 228.082 202.307 231.192 215.724C231.297 216.178 231.014 216.633 230.56 216.738C230.11 216.842 229.661 216.565 229.55 216.119L229.544 216.1Z" fill="#CCE9FF"/>
<path d="M200.981 158.019C200.974 161.501 200.082 164.83 198.895 168.012C197.71 171.216 195.689 174.018 193.757 176.793C191.824 179.579 189.634 182.181 187.273 184.591C184.916 187.01 182.231 189.081 179.478 190.961C179.401 191.014 179.296 190.993 179.244 190.916C179.196 190.847 179.208 190.755 179.267 190.699L179.274 190.691C181.68 188.398 184.056 186.118 186.011 183.467C188.053 180.907 189.898 178.201 191.475 175.345C193.097 172.509 194.253 169.459 195.82 166.614C197.363 163.743 198.867 160.853 200.654 157.936L200.659 157.928C200.709 157.846 200.816 157.82 200.898 157.871C200.952 157.904 200.981 157.961 200.981 158.019ZM220.956 149.395C223.274 149.742 225.31 150.36 227.337 151C229.361 151.609 231.185 152.724 233.189 153.447C235.175 154.205 237.23 154.777 239.325 155.203C241.416 155.725 243.56 155.882 245.743 156.056L245.753 156.057C245.847 156.065 245.916 156.147 245.909 156.24C245.903 156.319 245.843 156.381 245.768 156.393C243.599 156.759 241.362 156.963 239.126 156.881C236.895 156.78 234.654 156.516 232.453 156.048C230.262 155.579 227.967 155.229 225.99 154.1C224.023 152.991 222.153 151.64 220.771 149.678C220.713 149.596 220.733 149.483 220.814 149.424C220.854 149.397 220.901 149.387 220.945 149.393L220.956 149.395ZM162.807 86.9962C162.991 90.3302 162.345 93.5512 161.43 96.6629C160.521 99.7932 158.795 102.599 157.189 105.401C155.581 108.211 153.735 110.882 151.749 113.42C149.741 115.947 147.454 118.24 145.052 120.341C144.981 120.402 144.875 120.395 144.813 120.325C144.758 120.262 144.758 120.169 144.81 120.107L144.815 120.1C146.822 117.631 148.781 115.165 150.371 112.443C152.03 109.781 153.53 107.026 154.787 104.161C156.086 101.312 156.944 98.2992 158.267 95.4776C159.566 92.633 160.856 89.7853 162.477 86.9263C162.521 86.84 162.626 86.8053 162.712 86.849C162.767 86.8778 162.801 86.9397 162.807 86.9962ZM175.295 79.5737C177.892 79.715 180.258 80.1085 182.618 80.4924C184.97 80.8422 187.213 81.6803 189.579 82.0471C191.934 82.4636 194.328 82.5515 196.727 82.4657C199.145 82.4417 201.514 81.9453 203.908 81.3577L203.919 81.3551C204.01 81.3327 204.101 81.3881 204.124 81.4788C204.143 81.5572 204.104 81.6366 204.035 81.6707C201.811 82.7728 199.42 83.6531 196.931 84.1426C194.443 84.5803 191.887 84.8341 189.341 84.7398C186.807 84.655 184.187 84.6422 181.772 83.7635C179.372 82.9019 177.045 81.7502 175.149 79.8776C175.078 79.8083 175.078 79.6953 175.147 79.6249C175.184 79.5876 175.234 79.5694 175.283 79.5721L175.295 79.5737Z" fill="#CCE9FF"/>
<path d="M131.536 323.558H188.191V334.298H179.157V339.667H140.57V334.298H131.536V323.558Z" fill="#0E538C"/>
<path d="M549.918 255.938L546.221 251.386L544.067 257.052L554.174 310.12L560.025 309.005L549.918 255.938Z" fill="#0B4870"/>
<path d="M574.457 261.519L572.938 258.471L570.3 260.879L562.098 314.274L566.255 314.913L574.457 261.519Z" fill="#0B4870"/>
<path d="M585.526 250.452L584.711 248.159L583.426 249.673C581.7 251.704 580.573 254.175 580.168 256.81C580.024 257.744 580.341 258.688 581.017 259.346L575.934 306.69L577.447 307.08L584.19 259.97C585.246 259.35 585.967 258.288 586.153 257.077C586.495 254.85 586.279 252.574 585.526 250.452Z" fill="#0B4870"/>
<path d="M579.414 261.47L579.104 259.254L578.274 260.837C577.16 262.963 576.356 265.483 575.951 268.119C575.807 269.052 575.924 269.966 576.264 270.573L570.235 317.77L571.067 318.055L578.023 270.978C578.664 270.294 579.144 269.194 579.33 267.984C579.672 265.759 579.701 263.52 579.414 261.47ZM566.181 266.795C565.84 265.991 564.721 265.893 564.222 266.61C563.77 267.262 563.308 268.18 563.126 269.366C562.982 270.3 563.099 271.213 563.439 271.82L557.41 319.018L558.242 319.303L565.198 272.226C565.839 271.542 566.319 270.442 566.505 269.231C566.652 268.278 566.454 267.44 566.181 266.795Z" fill="#0B4870"/>
<path d="M557.195 263.92L556.296 262.149L555.929 263.7C555.438 265.781 555.351 268.109 555.679 270.424C555.795 271.244 556.156 271.978 556.647 272.394L563.691 313.54L564.568 313.554L558.447 272.258C558.875 271.512 559.037 270.461 558.887 269.398C558.609 267.44 558.028 265.558 557.195 263.92Z" fill="#0B4870"/>
<path d="M576.525 332.165H548.263L548.184 331.53C542.655 286.997 542.655 286.808 542.655 286.746V286.012L543.389 286.023C543.77 286.028 581.555 286.542 582.047 286.542H582.878L576.525 332.165Z" fill="#FFBE55"/>
<path d="M529.959 282.591H505.102C504.467 282.591 503.951 283.106 503.951 283.743V328.508H531.109V283.743C531.109 283.106 530.594 282.591 529.959 282.591Z" fill="#F2F2F2"/>
<path d="M522.261 272.648H512.8C512.183 272.648 511.683 273.148 511.683 273.765V282.592H523.378V273.765C523.378 273.148 522.877 272.648 522.261 272.648Z" fill="#FFBE55"/>
<path d="M527.38 301.163H526.915C526.259 301.163 525.706 300.704 525.544 300.068C524.183 294.695 521.03 290.927 517.351 290.927C513.673 290.927 510.52 294.695 509.159 300.068C508.997 300.704 508.444 301.163 507.788 301.163H507.68C506.904 301.163 506.274 301.792 506.274 302.569V310.87C506.274 311.647 506.904 312.277 507.68 312.277H508.196C508.801 312.277 509.354 312.653 509.54 313.228C511.056 317.886 513.982 321.05 517.351 321.05C520.721 321.05 523.647 317.886 525.163 313.228C525.349 312.653 525.903 312.277 526.507 312.277H527.38C528.157 312.277 528.786 311.647 528.786 310.87V302.569C528.786 301.792 528.157 301.163 527.38 301.163Z" fill="#0B4870"/>
<path d="M479.972 606.403C479.762 606.403 479.551 606.385 479.336 606.351C477.253 606.011 475.846 604.099 476.196 602.077L524.607 344.229C524.961 342.211 526.95 340.85 529.011 341.181C531.095 341.521 532.501 343.433 532.152 345.455L483.74 603.303C483.427 605.116 481.804 606.403 479.972 606.403ZM604.84 606.403C603.003 606.403 601.386 605.116 601.072 603.303L549.442 345.455C549.093 343.433 550.499 341.521 552.583 341.181C554.679 340.872 556.637 342.211 556.987 344.229L608.617 602.077C608.967 604.099 607.56 606.011 605.477 606.351C605.261 606.386 605.051 606.403 604.84 606.403Z" fill="#CCE9FF"/>
<path d="M602.634 350.93H476.143V326.922H602.634V350.93Z" fill="#0B4870"/>
<path d="M589.083 515.746H496.005V508.446H589.083V515.746Z" fill="#CCE9FF"/>
<path d="M61.956 599.583H10.2579L10.1141 598.461C-5.07109e-05 519.789 -1.50867e-05 519.455 -1.50867e-05 519.344V518.048L1.34228 518.066C2.03984 518.075 71.1583 518.984 72.0573 518.984H73.579L61.956 599.583Z" fill="#CCE9FF"/>
<path d="M65.4227 518.902L31.5801 518.462V527.445C31.5801 529.997 34.7724 531.15 36.403 529.188C38.3243 526.875 42.0711 527.858 42.6103 530.817L43.8398 537.56C44.4716 541.027 49.2083 541.581 50.6237 538.354L54.1976 530.203C55.1217 528.096 58.2148 528.462 58.6225 530.726L59.3063 534.517C59.9421 538.043 64.9687 538.122 65.7158 534.618L69.0566 518.949L65.4227 518.902Z" fill="#FFCB0C"/>
<path d="M322.69 402.893H352.737L349.238 475.632H326.189L322.69 402.893Z" fill="#FFBE55"/>
<path d="M345.811 462.805L343.711 582.57H331.716L329.616 462.805H345.811Z" fill="#FFBE55"/>
<path d="M339.609 434.162C304.934 434.162 276.824 422.225 276.824 407.5C276.824 392.776 304.934 380.839 339.609 380.839C374.284 380.839 402.393 392.776 402.393 407.5C402.393 422.225 374.284 434.162 339.609 434.162Z" fill="#2A94F4"/>
<path d="M371.337 585.619H298.368V577.962H371.337V585.619Z" fill="#FFBE55"/>
<path d="M312.361 595.464C312.361 601.505 307.886 606.403 302.365 606.403C296.845 606.403 292.37 601.505 292.37 595.464C292.37 589.423 296.845 584.526 302.365 584.526C307.886 584.526 312.361 589.423 312.361 595.464ZM344.847 595.464C344.847 601.505 340.372 606.403 334.852 606.403C329.331 606.403 324.856 601.505 324.856 595.464C324.856 589.423 329.331 584.526 334.852 584.526C340.372 584.526 344.847 589.423 344.847 595.464ZM377.334 595.464C377.334 601.505 372.859 606.403 367.338 606.403C361.818 606.403 357.343 601.505 357.343 595.464C357.343 589.423 361.818 584.526 367.338 584.526C372.859 584.526 377.334 589.423 377.334 595.464Z" fill="#FFBE55"/>
<path d="M193.631 364.566C178.886 373.595 187.672 388.945 187.672 388.945L213.155 376.755L218.171 358.154L193.631 364.566Z" fill="#FFE3CA"/>
<path d="M281.125 635.484L280.519 650.397L291.329 652.054L291.762 635.605L281.125 635.484Z" fill="#EDAC90"/>
<path d="M291.56 639.67C291.56 639.67 246.825 639.67 240.15 649.684C235.284 656.985 292.162 660 292.162 660L291.56 639.67Z" fill="#0B4870"/>
<path d="M248.782 554.018L256.433 566.832L266.386 562.301L257.75 548.298L248.782 554.018Z" fill="#EDAC90"/>
<path d="M260.552 552.841C260.552 552.841 225.994 568.637 222.256 588.331C220.619 596.953 271.433 568.493 271.433 568.493L260.552 552.841ZM267.997 193.648C250.444 182.842 272.846 173.504 252.26 174.54C247.602 174.773 242.541 175.226 238.656 172.645C233.607 169.29 232.691 162.131 233.953 156.2C236.969 141.986 250.489 130.722 265.012 130.32C284.745 129.774 301.884 146.809 321.6 145.809C329.121 145.429 336.216 142.421 343.433 140.264C364.468 133.977 391.538 137.322 401.973 156.647C404.766 161.82 406.104 167.715 409.181 172.726C417.916 186.952 437.086 189.744 451.126 198.772C466.729 208.806 475.992 227.931 474.195 246.401C473.446 254.093 470.583 262.071 464.336 266.621C464.336 266.621 443.097 293.717 395.018 266.621C346.936 239.523 267.997 193.648 267.997 193.648Z" fill="#0B4870"/>
<path d="M308.498 245.215C301.008 236.706 186.194 362.534 161.688 375.781C137.179 389.027 142.804 375.781 142.804 375.781L191.989 320.905L286.573 214.794L308.498 245.215Z" fill="#2A94F4"/>
<path d="M293.84 197.621C314.64 187.532 339.432 190.112 357.542 204.484C357.732 204.634 357.92 204.784 358.109 204.937C389.7 230.216 429.602 279.889 417.779 365.04L306.171 351.794C306.171 351.794 321.864 332.824 301.641 276.662C290.513 245.769 280.703 216.924 280.703 216.924L293.84 197.621Z" fill="#2A94F4"/>
<path d="M353.462 238.26C353.462 238.26 344.005 338.548 306.171 351.795C268.336 365.041 200.832 363.316 200.832 363.316C200.832 363.316 195.005 358.063 267.422 340.759C270.43 340.041 273.57 339.304 276.85 338.549C276.85 338.549 317.909 314.817 315.788 242.258C315.69 238.968 315.822 235.679 316.317 232.429C317.949 221.752 323.109 200.322 338.152 202.306C358.109 204.937 353.462 238.26 353.462 238.26Z" fill="#2A94F4"/>
<path opacity="0.21" d="M353.462 238.26C353.462 238.26 344.005 338.548 306.171 351.795C268.336 365.041 200.832 363.316 200.832 363.316C200.832 363.316 195.005 358.063 267.422 340.759C270.43 340.041 273.57 339.304 276.85 338.549C276.85 338.549 317.909 314.817 315.788 242.258C315.69 238.968 315.822 235.679 316.317 232.429C317.949 221.752 323.109 200.322 338.152 202.306C358.109 204.937 353.462 238.26 353.462 238.26Z" fill="#F7F7F7"/>
<path d="M417.779 365.04C417.779 365.04 332.654 467.224 315.63 497.5C298.602 527.775 306.171 635.366 300.494 638.339C294.821 641.313 273.091 638.373 273.091 638.373L271.746 556.724L270.83 513.966C270.388 493.455 273.921 473.054 281.227 453.885L304.28 393.423C304.28 393.423 210.176 399.272 226.718 446.407C247.508 505.637 266.446 550.483 266.446 550.483L247.528 558.05C247.528 558.05 158.702 446.407 179.429 397.209C200.151 348.009 306.171 351.793 306.171 351.793L417.779 365.04Z" fill="#0E538C"/>
<path d="M233.827 170.552L248.856 202.266C252.202 209.329 260.65 212.323 267.694 208.941L271.852 206.945L278.881 214.869C283.824 220.442 292.347 220.953 297.916 216.006L301.255 213.045C307.693 207.33 308.282 197.475 302.57 191.033L267.834 151.87L233.827 170.552Z" fill="#FFE3CA"/>
<path d="M288.499 197.85C288.499 197.85 274.471 201.279 267.997 193.648C267.997 193.648 275.278 174.54 267.776 174.487C260.276 174.433 259.798 189.023 259.798 189.023C259.798 189.023 254.482 173.609 250.39 172.022C250.39 172.022 232.002 188.295 225.372 174.836C225.372 174.836 226.366 165.668 237.346 154.757C248.32 143.85 270.161 149.562 270.161 149.562L288.499 197.85Z" fill="#0B4870"/>
<path d="M310.896 190.02C310.896 190.02 300.382 197.486 288.499 197.85C276.612 198.211 268.962 148.067 268.962 148.067L310.896 190.02Z" fill="#0B4870"/>
<path d="M137.318 375.118C130.353 379.036 121.123 372.224 120.804 376.137C120.124 384.45 118.956 380.84 116.648 377.271C113.368 372.198 111.099 400.38 126.792 396.404C142.486 392.429 147.677 380.388 147.677 380.388C147.677 380.388 147.089 377.884 144.293 376.106C139.28 372.917 137.318 375.118 137.318 375.118Z" fill="#FFE3CA"/>
<path d="M102.092 339.217L100.011 336.996L100.134 339.433C100.3 342.705 101.167 346.166 102.639 349.432C103.16 350.589 104.004 351.514 104.904 351.917L132.845 409.435L134.142 409.08L107.493 350.947C107.806 349.666 107.595 348.052 106.918 346.55C105.676 343.792 104.018 341.272 102.092 339.217Z" fill="#0B4870"/>
</svg>
