<svg width="160" height="160" viewBox="0 0 160 160" fill="none" xmlns="http://www.w3.org/2000/svg"><g class="gear">
<path class="gear" d="M48.7879 25.2306L34.6474 11.6331L9.9178 37.3504L24.057 50.9466C29.6464 40.1724 38.2656 31.2244 48.7879 25.2306ZM17.0379 79.8118C17.0379 73.614 17.9406 67.6279 19.6138 61.9727H0V97.6509H19.6138C17.9406 91.9959 17.0379 86.0096 17.0379 79.8118ZM79.8118 17.0379C86.0096 17.0379 91.9958 17.9406 97.6509 19.6138V0H61.9727V19.6138C67.6279 17.9406 73.614 17.0379 79.8118 17.0379ZM135.567 50.9466L149.706 37.3504L124.976 11.6331L110.836 25.2306C121.358 31.2244 129.977 40.1724 135.567 50.9466ZM140.01 61.9727C141.683 67.6279 142.586 73.614 142.586 79.8118C142.586 86.0096 141.683 91.9958 140.01 97.6509H159.624V61.9727H140.01ZM110.836 134.393L124.976 147.991L149.706 122.273L135.567 108.677C129.977 119.451 121.358 128.399 110.836 134.393ZM24.057 108.677L9.9178 122.273L34.6476 147.991L48.7881 134.393C38.2656 128.399 29.6464 119.451 24.057 108.677ZM79.8118 142.586C73.614 142.586 67.6279 141.683 61.9727 140.01V159.624H97.6509V140.01C91.9958 141.683 86.0096 142.586 79.8118 142.586Z" fill="#00ACE6"/>
<path class="gear" d="M147.964 78.2366C147.14 40.6033 116.397 10.3434 78.5664 10.3434C70.6003 10.3434 62.9556 11.7026 55.8293 14.1718C50.6475 15.9675 45.7571 18.3754 41.2179 21.2841C36.324 24.4206 31.8407 28.1413 27.8858 32.3676C23.5826 36.9658 19.8874 42.1399 16.9517 47.7763C11.9634 57.3534 9.13013 68.2322 9.13013 79.7798C9.13013 81.9647 9.23963 84.1236 9.43651 86.2569C12.1607 115.692 33.2507 139.804 61.146 147.011C66.7131 148.449 72.5498 149.216 78.5664 149.216C116.915 149.216 148.003 118.128 148.003 79.7798C148.003 79.2624 147.975 78.7515 147.964 78.2366ZM78.5664 124.989C74.6387 124.989 70.8283 124.487 67.1953 123.545C48.6863 118.75 34.8081 102.519 33.4873 82.8456C33.4191 81.8299 33.3568 80.8125 33.3568 79.7798C33.3568 72.0928 35.2903 64.8645 38.6753 58.5285C40.7948 54.5619 43.5013 50.9627 46.656 47.8114C48.8859 45.5841 51.354 43.5998 54.0043 41.8716C57.2134 39.7789 60.6941 38.0687 64.4034 36.8458C68.8598 35.3762 73.6179 34.5699 78.5666 34.5699C103.017 34.5699 122.922 53.9835 123.737 78.2364C123.754 78.7498 123.776 79.2623 123.776 79.7796C123.776 104.748 103.535 124.989 78.5664 124.989Z" fill="#00ACE6"/></g>
<path fill-rule="evenodd" clip-rule="evenodd" d="M45.0525 111.455C45.0525 111.455 42.7313 113.188 41.544 114.074C41.1353 114.379 40.5782 114.394 40.1531 114.112C39.6793 113.797 39.3563 113.299 39.2606 112.738C39.1652 112.177 39.3055 111.602 39.6484 111.148C40.5971 109.891 41.7092 108.418 41.7092 108.418L45.0525 111.455Z" fill="#FCD2B1"/>
<path fill-rule="evenodd" clip-rule="evenodd" d="M85.9704 96.6564C87.701 97.9296 90.8053 99.2462 91.9344 100.692C99.186 109.98 91.5317 117.115 81.0874 109.982C64.3011 98.5178 66.099 94.2321 44.9059 112.898L40.1046 109.139C55.6695 83.2689 61.7235 78.8209 85.9704 96.6564Z" fill="#1F3F6D"/>
<path fill-rule="evenodd" clip-rule="evenodd" d="M66.3156 140.304C66.3156 140.304 65.4083 143.665 64.944 145.384C64.7914 145.95 64.2439 146.317 63.6621 146.243C63.2792 146.194 62.931 145.994 62.6949 145.689C62.4589 145.384 62.3537 144.997 62.4028 144.614C62.6769 142.471 63.1599 138.697 63.1599 138.697L66.3156 140.304Z" fill="#FCD2B1"/>
<path fill-rule="evenodd" clip-rule="evenodd" d="M66.1127 144.874C66.1044 144.635 61.4479 144.229 61.3933 144.413C61.3777 144.436 61.3702 144.461 61.3624 144.488C60.6154 147.002 58.1677 148.614 55.5628 148.307C55.413 148.289 55.2611 148.3 55.1152 148.338C53.5042 148.769 52.6091 149.682 52.4468 151.093C56.9961 151.693 61.6172 151.583 66.3154 150.707L66.1127 144.874ZM42.5252 114.186C42.636 113.974 38.7861 111.323 38.6482 111.456C38.6231 111.468 38.6038 111.487 38.5843 111.506C36.6941 113.324 33.7697 113.518 31.6554 111.966C31.5339 111.877 31.3965 111.811 31.2506 111.772C29.637 111.352 28.4076 111.705 27.5704 112.852C31.2313 115.619 35.3046 117.803 39.8233 119.36L42.5252 114.186Z" fill="#FFCB0C"/>
<path d="M35.3486 115.429C35.3486 115.429 35.3666 115.436 35.3486 115.429V115.429Z" fill="#FFCB0C"/>
<path fill-rule="evenodd" clip-rule="evenodd" d="M92.3413 106.37C94.4884 106.454 97.7972 105.805 99.5428 106.37C110.754 109.997 106.956 123.506 94.3088 123.452C73.9813 123.365 73.7385 120.192 67.0155 141.533L62.0893 141.063C60.4815 110.915 62.2645 105.188 92.3413 106.37Z" fill="#1F3F6D"/>
<path fill-rule="evenodd" clip-rule="evenodd" d="M95.2854 95.1574C95.2854 95.1574 98.4364 97.2936 99.8499 95.7776C101.263 94.2617 100.283 98.8909 100.283 98.8909L98.6764 100.583L95.7665 97.7942L92.8211 94.6528L95.2854 95.1574ZM111.64 80.6518C109.594 78.3503 105.912 74.3096 105.912 74.3096C105.912 74.3096 99.5646 76.3569 100.283 80.3199C101.002 84.2833 101.419 87.5134 101.419 87.5134L109.561 85.2743C109.561 85.2743 113.686 82.9534 111.64 80.6518Z" fill="#FCD2B1"/>
<path fill-rule="evenodd" clip-rule="evenodd" d="M100.266 80.3199C100.266 80.3199 102.391 100.984 94.7749 102.578L94.3086 106.37C94.3086 106.37 101.329 104.527 102.863 101.397C104.399 98.2682 106.258 82.5827 106.258 82.5827C103.404 82.7981 101.33 82.131 100.266 80.3199Z" fill="#1F3F6D"/>
<path fill-rule="evenodd" clip-rule="evenodd" d="M92.6756 63.0278C89.8847 65.0469 88.8227 68.6683 89.6327 72.2259C89.7771 72.8591 90.4358 75.8623 91.2355 77.0167C95.2735 82.8456 102.04 81.3178 104.579 79.4813C108.494 76.6487 109.007 70.6624 105.722 66.1221C102.437 61.5816 96.5912 60.1952 92.6756 63.0278Z" fill="#FFE3CA"/>
<path fill-rule="evenodd" clip-rule="evenodd" d="M84.0249 68.2251C84.3703 75.4913 95.535 68.3987 95.9383 66.7429C95.8783 69.0533 96.9947 70.8473 99.1826 72.1708C99.1826 72.1708 98.7064 74.5048 100.769 75.5627C102.831 76.6204 106.124 78.9859 107.886 76.9731C109.089 75.5982 109.388 72.6478 109.653 70.1923C110.794 59.6033 101.771 60.9349 99.8063 60.0225C99.8064 60.0225 83.4302 55.7097 84.0249 68.2251Z" fill="#1F3F6D"/>
<path fill-rule="evenodd" clip-rule="evenodd" d="M98.9359 72.5631C98.9359 71.2536 99.9973 70.1923 101.307 70.1923C102.616 70.1923 103.678 71.2536 103.678 72.5631C103.678 72.6392 103.678 72.7161 103.678 72.7928C103.678 74.2286 102.514 75.3924 101.078 75.3924C99.9737 75.3924 98.9359 75.3924 98.9359 75.3924V72.5631Z" fill="#FFE3CA"/>
<path d="M88.8786 71.6278C88.8786 71.6278 88.8788 71.6097 88.8786 71.6278V71.6278ZM107.537 62.9565C107.526 62.9074 107.537 62.9565 107.537 62.9565V62.9565Z" fill="#602600"/>
<path d="M78.8887 84.8248L96.9545 99.2385L97.5039 98.5431L79.6933 84.477C79.388 84.3731 79.0717 84.5931 78.8887 84.8248Z" fill="#D3D3D3"/>
<path fill-rule="evenodd" clip-rule="evenodd" d="M79.3762 84.8248L97.2292 98.8909L94.3138 106.28L76.461 92.2135L79.3762 84.8248Z" fill="#F7F7F7"/>
<path d="M93.8959 106.209C93.7449 106.93 93.9759 107.147 94.7389 106.663L97.7829 98.8911C97.6492 98.4797 97.3269 98.4259 96.8162 98.7298L93.8959 106.209Z" fill="#D3D3D3"/>
<path d="M75.9597 92.0498C75.871 92.3201 75.8952 92.3785 76.0941 92.56L93.9407 106.854L94.4946 106.162L76.9043 92.0736L79.5 84.8248H78.8886L75.9597 92.0498Z" fill="#D3D3D3"/>
<path fill-rule="evenodd" clip-rule="evenodd" d="M96.1448 105.591C99.4658 106.909 101.215 113.906 102.044 121.879C133.571 113.097 123.075 87.1033 110.106 78.939C109.557 81.5803 107.712 82.1822 104.645 82.5827C104.557 91.218 104.043 96.1236 96.1448 105.591Z" fill="#FFCB0C"/>
<path fill-rule="evenodd" clip-rule="evenodd" d="M98.8071 106.739C97.8308 106.34 96.9805 106.067 96.345 105.886C95.641 105.703 95.0561 105.214 94.7516 104.554C94.1545 103.247 93.1811 102.121 91.8088 101.186C91.5505 101.012 91.3373 100.778 91.1865 100.505C90.9499 100.082 90.6251 99.4941 90.6251 99.4941C90.3881 99.072 90.0761 98.8871 89.7497 98.8911C89.4724 98.8892 89.2176 99.0428 89.0891 99.2884C88.9607 99.5342 88.9804 99.8308 89.1401 100.058C89.5586 100.694 90.2616 101.692 90.7238 102.347C90.768 102.411 90.7667 102.495 90.7198 102.557C90.6733 102.619 90.5921 102.643 90.519 102.617C90.2582 102.521 89.9781 102.511 89.6863 102.572C89.1373 102.68 88.569 102.523 88.1535 102.148C87.5839 101.639 86.9235 101.158 86.1583 100.704C85.6125 100.38 85.1072 101.025 85.1421 101.705L89.3314 104.891C92.6745 105.258 95.2839 107.057 97.7481 109.139C97.7477 109.139 100.943 107.61 98.8071 106.739Z" fill="#FCD2B1"/>
<path fill-rule="evenodd" clip-rule="evenodd" d="M105.981 106.664C103.323 107.498 100.203 107.225 98.8822 106.783C97.9914 106.486 96.5799 108.387 97.5638 108.959C99.7378 110.222 103.963 112.282 107.573 113.361C108.21 111.085 106.937 108.586 105.981 106.664Z" fill="#FCD2B1"/>
<path fill-rule="evenodd" clip-rule="evenodd" d="M107.286 113.273C114.226 115.287 127.955 110.894 119.046 87.831C118.599 86.6762 115.479 83.0814 111.324 84.5702C109.676 85.1604 106.146 87.8554 108.39 92.6544C113.31 103.173 109.084 105.701 105.195 106.922C106.917 108.797 107.922 111 107.286 113.273Z" fill="#1F3F6D"/>
<path d="M91.3003 93.2218C90.8258 93.228 90.3051 93.339 90.1686 93.7731C90.0152 94.2604 90.4989 94.7814 91.0513 94.6808C92.1763 94.4891 93.3118 95.2215 94.3832 95.9578C94.3832 95.9578 95.3209 96.2355 95.4878 95.532C95.6404 94.8876 94.7226 94.4199 93.9356 93.9986C93.1163 93.5601 92.2335 93.2094 91.3003 93.2218Z" fill="#FCD2B1"/>
</svg>
