<svg width="962" height="559" viewBox="0 0 962 559" fill="none" xmlns="http://www.w3.org/2000/svg">
<path d="M898 443.9C905.1 425.8 912.3 405.7 905.6 387.5C904 383.1 901.5 378.4 903 373.9C905 367.8 913 365.7 915.6 359.9C918.6 353.5 913.9 346.1 915.1 339.2C916.3 332.2 923.2 327.6 929.9 325.1C936.6 322.6 943.9 321 949.3 316.4C959.6 307.4 958.4 291.3 956.1 277.7C953.8 264.2 952.1 248.2 962 238.7C943.8 242.2 925.2 245.8 909.4 255.4C893.6 265 881 282 881.9 300.5C882.4 309.8 886 319.7 881.8 327.9C877.2 336.8 864.9 340.3 861.8 349.8C858.2 360.7 868.9 370.7 873.1 381.4C877.1 391.5 875.2 402.8 876.1 413.5C877 424.3 882.6 436.5 893.3 438.1L898 443.9Z" fill="#FFBE55"/>
<path opacity="0.31" d="M898 443.9C905.1 425.8 912.3 405.7 905.6 387.5C904 383.1 901.5 378.4 903 373.9C905 367.8 913 365.7 915.6 359.9C918.6 353.5 913.9 346.1 915.1 339.2C916.3 332.2 923.2 327.6 929.9 325.1C936.6 322.6 943.9 321 949.3 316.4C959.6 307.4 958.4 291.3 956.1 277.7C953.8 264.2 952.1 248.2 962 238.7C943.8 242.2 925.2 245.8 909.4 255.4C893.6 265 881 282 881.9 300.5C882.4 309.8 886 319.7 881.8 327.9C877.2 336.8 864.9 340.3 861.8 349.8C858.2 360.7 868.9 370.7 873.1 381.4C877.1 391.5 875.2 402.8 876.1 413.5C877 424.3 882.6 436.5 893.3 438.1L898 443.9Z" fill="white"/>
<path d="M855.7 439.5C844.9 419.3 833.7 396.8 839 374.5C840.3 369.1 842.5 363.3 840.2 358.2C837.1 351.4 827.4 349.9 823.5 343.5C819.2 336.5 823.6 327.1 821.2 319.2C818.8 311.1 810.1 306.8 802 304.7C793.9 302.7 785.1 301.9 778.1 297.1C764.8 288 764 268.9 764.8 252.8C765.6 236.7 765.4 217.7 752.5 208C774.3 209.6 796.6 211.3 816.4 220.4C836.2 229.5 853.4 247.7 854.8 269.5C855.5 280.4 852.6 292.5 858.7 301.6C865.3 311.4 880.2 313.8 885.2 324.5C890.9 336.8 879.8 349.9 876.3 363C873.1 375.3 876.8 388.3 877.2 401C877.6 413.7 872.7 428.8 860.4 432.2L855.7 439.5Z" fill="#FFCB0C"/>
<path d="M924 558H829C822.4 558 817 552.6 817 546L809 409C809 402.4 814.4 397 821 397H932C938.6 397 944 402.4 944 409L936 546C936 552.6 930.6 558 924 558Z" fill="#CCE9FF"/>
<path d="M123.845 113.609L62.5454 122.904L104.222 397.762L165.521 388.467L123.845 113.609Z" fill="#FFCB0C"/>
<path d="M123.823 113.635L93.1738 118.283L134.85 393.141L165.5 388.494L123.823 113.635Z" fill="#FFBE55"/>
<path d="M123.9 113.9L62.6 123.2L77 86.3L85.2 65.5L99.2 83L123.9 113.9Z" fill="#FFEBC2"/>
<path d="M99.2 83L77 86.3L85.2 65.5L99.2 83Z" fill="#0E538C"/>
<path d="M234.867 56.2111L173.115 50.6813L148.321 327.569L210.073 333.099L234.867 56.2111Z" fill="#FFCB0C"/>
<path d="M234.926 56.2334L204.05 53.4685L179.256 330.357L210.132 333.121L234.926 56.2334Z" fill="#FFBE55"/>
<path d="M234.9 56.5L173.1 51L195.9 18.6L208.8 0.299988L218.2 20.6L234.9 56.5Z" fill="#FFEBC2"/>
<path d="M218.2 20.6L195.9 18.6L208.8 0.299988L218.2 20.6Z" fill="#0E538C"/>
<path d="M275.5 559H31.9L0 182H295L275.5 559Z" fill="#CCE9FF"/>
<path opacity="0.5" d="M147.5 559H275.5L295 182H147.5V559Z" fill="#CCE9FF"/>
<path d="M820 452.6H201V537.7H820V452.6Z" fill="#FFEBC2"/>
<path d="M203.6 452.6V537.7H853V544.1C853 552 846.1 558.4 837.6 558.4H206.4C186.3 558.4 170 543.4 170 524.8V467.9C170 449.3 186.3 434.3 206.4 434.3H837.6C846.1 434.3 853 440.7 853 448.6V452.7H203.6V452.6Z" fill="#FFCB0C"/>
<path d="M820 490.5H201V537.6H820V490.5Z" fill="#FFEBC2"/>
<path d="M784 349H281V423H784V349Z" fill="#CCE9FF"/>
<path d="M281 349V423H803V428.6C803 435.5 797.4 441 790.6 441H283.2C267.1 441 254 427.9 254 411.8V362.3C254 346.2 267.1 333.1 283.2 333.1H790.6C797.4 333.1 803 338.7 803 345.5V349.1H281V349Z" fill="#00ACE6"/>
<path d="M498.4 97.1C491.5 88 490.9 75.5 497.4 66C502.6 58.4 506.1 49 505.7 42.1C504.9 29.7 497.2 18.3 486.7 11.5C472.9 2.50001 454.5 1.20002 439.6 8.20002C424.7 15.2 413.9 30.2 412 46.5C410.6 58.2 413.3 71 407.3 81.2C402.9 88.5 394.8 92.8 386.8 95.7C378.7 98.5 370.2 100.4 362.8 104.7C355.4 109 349.1 116.4 349.2 125C349.3 131.5 353 137.5 353.4 143.9C354 153.3 347.4 161.6 340.4 167.8C333.3 174 325.2 179.4 320.4 187.5C312.5 200.9 316.2 219 326.2 231C336.2 243 351.2 249.7 366.2 253.6C407.2 264.4 450.4 257.4 492.7 256.7C505.8 256.5 519.2 256.9 531.9 253.6C544.6 250.3 557 242.7 562.3 230.7C567.7 218.7 565 204.1 557.8 193.2C550.6 182.3 539.3 174.4 527.4 168.8C518.8 164.7 509.6 161.5 502.6 155.1C495.6 148.7 491.5 137.8 496.2 129.5C498 126.3 501 123.8 502.7 120.6C506.1 114.4 504.7 106.5 500.9 100.5C500.2 99.5 499.4 98.4 498.4 97.1Z" fill="#1F3F6D"/>
<path d="M784 382H281V423H784V382Z" fill="#CCE9FF"/>
<path d="M508 277L570 321L646 478H632L547 339C547 339 518 340 508 331C498 322 440.5 283 440.5 283L508 277Z" fill="#1F3F6D"/>
<path d="M398.3 264.4C387 295 395 338 433 340C471 342 483 340 483 340L557 490H574L516 322L445.5 283L398.3 264.4Z" fill="#0E538C"/>
<path d="M456 90C466 103 490 139 499 179C508 219 533 277 533 277H504L476 182L450 93L456 90Z" fill="#4EA3FB"/>
<path d="M486.8 36.9C488.3 61.4 477.6 78.2 462.3 79C447 79.8 437 57.6 441.6 36.9C452.3 18.5 466.9 17 466.9 17H476.1L486.8 36.9Z" fill="#FFE3CA"/>
<path d="M476.6 22.3C473.8 30.9 467.6 38.3 459.6 42.5C451.6 46.7 442 47.7 433.3 45.1L455.1 14H473.8L491.7 28.2L489 44.5C482 39.2 476.6 22.3 476.6 22.3Z" fill="#1F3F6D"/>
<path d="M457.7 76.1C454.5 88.5 455.5 101.5 455.5 103.5C452.5 107.5 438.5 106.5 436.5 92.5C439.5 74.5 445.5 54.5 445.5 54.5L450.5 65.5L457.7 76.1Z" fill="#FFE3CA"/>
<path d="M438.5 81.9C426 86 384 105 382 109C385 120 400 283 400 283H468C468 283 459 193 464 187C469 181 485 160 483 157C481 154 455.6 89.5 455.6 89.5L438.5 81.9Z" fill="#2A94F4"/>
<path d="M382 109C372.2 116.5 331 184 344 220C357 256 399.5 277.2 399.5 277.2V257.4C399.5 257.4 365 230 367 210C369 190 393 149 393 149L382 109Z" fill="#4EA3FB"/>
<path d="M543.1 294.5H395.9C391.3 294.5 387.5 290.7 387.5 286.1L383.5 191.9C383.5 187.3 387.3 183.5 391.9 183.5H545.1C549.7 183.5 553.5 187.3 553.5 191.9L551.5 286.1C551.5 290.7 547.7 294.5 543.1 294.5Z" fill="#FFCB0C"/>
<path d="M571.6 490C581.5 492.2 594.9 503.1 601.3 508.7C602.6 509.8 601.8 512 600 512C589.7 511.8 566.4 510.7 561 506.1C554 500.1 556 490.1 556 490.1H571.6V490ZM645.8 477.6C654.6 480 666.2 490.2 672 495.7C673.3 496.9 672.3 499 670.6 498.9C660.9 498.2 640.1 496.3 635.4 491.8C629.2 486 631.5 476.9 631.5 476.9L645.8 477.6Z" fill="#1A87D8"/>
<path d="M469 254C477.284 254 484 247.284 484 239C484 230.716 477.284 224 469 224C460.716 224 454 230.716 454 239C454 247.284 460.716 254 469 254Z" fill="white"/>
<path d="M337 452L318 441L299 452V382H337V452Z" fill="#FF7455"/>
<path opacity="0.14" d="M337 452L318 441L299 452V382H337V452Z" fill="#FF0000"/>
</svg>
