<svg width="195" height="191" viewBox="0 0 195 191" fill="none" xmlns="http://www.w3.org/2000/svg">
<path d="M160.024 165.408H51.9803V97.8381C51.9803 96.561 52.9963 95.5265 54.2492 95.5265H157.755C159.008 95.5265 160.024 96.561 160.024 97.8381V165.408Z" fill="#D3D3D3"/>
<path d="M156.071 100.422H55.935V160.008H156.071V100.422Z" fill="#F2F2F2"/>
<path d="M34.797 185.521C33.8038 186.82 35.7016 190.699 38.6779 190.699C84.3313 190.699 129.984 190.699 175.636 190.699C178.61 190.699 180.484 186.82 179.345 185.521H34.797Z" fill="#D3D3D3"/>
<path d="M178.963 184.811C180.102 186.108 178.61 187.161 175.636 187.161C129.984 187.161 84.3313 187.161 38.6785 187.161C35.7022 187.161 34.0954 186.108 35.0885 184.811C39.7627 178.699 44.4368 172.589 49.1103 166.478C50.1035 165.18 52.7022 164.129 54.9164 164.129C88.88 164.129 122.846 164.129 156.81 164.129C159.021 164.129 161.741 165.18 162.88 166.478C168.239 172.591 173.602 178.699 178.963 184.811Z" fill="#F2F2F2"/>
<g opacity="0.5">
<path opacity="0.5" d="M65.5055 170.312C63.6548 170.312 62.731 170.312 60.8797 170.312C61.5342 169.343 61.862 168.857 62.5152 167.888C64.2927 167.888 65.1802 167.888 66.9583 167.888C66.3777 168.857 66.0867 169.342 65.5055 170.312ZM71.5006 170.312C69.6519 170.312 68.7262 170.312 66.8749 170.312C67.4351 169.343 67.7152 168.857 68.2742 167.888C70.0517 167.888 70.9391 167.888 72.716 167.888C72.2302 168.857 71.987 169.343 71.5006 170.312ZM69.585 167.424C66.8838 167.424 65.5335 167.424 62.8323 167.424C63.0755 167.062 63.1977 166.881 63.4422 166.519C66.1033 166.519 67.43 166.519 70.0924 166.519C69.8887 166.881 69.7875 167.062 69.585 167.424ZM77.4996 167.424C74.7978 167.424 73.4462 167.424 70.745 167.424C70.9398 167.062 71.0372 166.881 71.2333 166.519C73.8925 166.519 75.2237 166.519 77.8835 166.519C77.7307 166.881 77.6524 167.062 77.4996 167.424ZM85.4148 167.424C82.713 167.424 81.3614 167.424 78.6596 167.424C78.8054 167.062 78.8792 166.881 79.025 166.519C81.6855 166.519 83.0167 166.519 85.6784 166.519C85.5727 166.881 85.5199 167.062 85.4148 167.424ZM93.3288 167.424C90.6269 167.424 89.2767 167.424 86.5754 167.424C86.6728 167.062 86.7206 166.881 86.818 166.519C89.4791 166.519 90.8109 166.519 93.4695 166.519C93.4148 166.881 93.3861 167.062 93.3288 167.424ZM101.245 167.424C98.5428 167.424 97.1919 167.424 94.4894 167.424C94.539 167.062 94.5626 166.881 94.6123 166.519C97.2727 166.519 98.602 166.519 101.262 166.519C101.255 166.881 101.252 167.062 101.245 167.424ZM109.159 167.424C106.458 167.424 105.109 167.424 102.406 167.424C102.406 167.062 102.406 166.881 102.406 166.519C105.066 166.519 106.395 166.519 109.056 166.519C109.098 166.881 109.116 167.062 109.159 167.424ZM117.075 167.424C114.374 167.424 113.022 167.424 110.32 167.424C110.271 167.062 110.247 166.881 110.197 166.519C112.858 166.519 114.188 166.519 116.849 166.519C116.938 166.881 116.984 167.062 117.075 167.424ZM124.991 167.424C122.288 167.424 120.938 167.424 118.236 167.424C118.138 167.062 118.089 166.881 117.991 166.519C120.652 166.519 121.981 166.519 124.642 166.519C124.782 166.881 124.852 167.062 124.991 167.424ZM132.906 167.424C130.203 167.424 128.853 167.424 126.152 167.424C126.003 167.062 125.93 166.881 125.782 166.519C128.443 166.519 129.775 166.519 132.436 166.519C132.624 166.881 132.718 167.062 132.906 167.424ZM140.82 167.424C138.116 167.424 136.767 167.424 134.066 167.424C133.871 167.062 133.772 166.881 133.578 166.519C136.237 166.519 137.566 166.519 140.226 166.519C140.463 166.881 140.581 167.062 140.82 167.424ZM149.652 167.424C146.584 167.424 145.05 167.424 141.981 167.424C141.737 167.062 141.614 166.881 141.37 166.519C144.39 166.519 145.9 166.519 148.923 166.519C149.214 166.881 149.361 167.062 149.652 167.424ZM77.4933 170.312C75.6432 170.312 74.7188 170.312 72.8688 170.312C73.3335 169.343 73.5672 168.858 74.0306 167.889C75.8081 167.889 76.6956 167.888 78.4724 167.888C78.0815 168.859 77.8854 169.342 77.4933 170.312ZM83.4871 170.312C81.6384 170.312 80.7127 170.312 78.862 170.312C79.2332 169.343 79.4178 168.857 79.7896 167.888C81.5664 167.888 82.4552 167.889 84.2314 167.889C83.934 168.859 83.7851 169.343 83.4871 170.312ZM89.4823 170.312C87.6322 170.312 86.7078 170.312 84.8578 170.312C85.1341 169.342 85.2729 168.858 85.5479 167.888C87.3247 167.888 88.2122 167.888 89.9897 167.888C89.7872 168.857 89.6841 169.343 89.4823 170.312ZM95.4762 170.312C93.6248 170.312 92.7005 170.312 90.8517 170.312C91.0325 169.343 91.1216 168.856 91.3043 167.888C93.0812 167.888 93.9699 167.888 95.7474 167.888C95.6379 168.857 95.5825 169.343 95.4762 170.312ZM101.467 170.312C99.6187 170.312 98.6943 170.312 96.8462 170.312C96.9328 169.343 96.9761 168.856 97.0627 167.888C98.8389 167.888 99.727 167.888 101.503 167.888C101.49 168.857 101.483 169.343 101.467 170.312ZM107.464 170.312C105.614 170.312 104.689 170.312 102.839 170.312C102.832 169.343 102.829 168.857 102.822 167.888C104.597 167.888 105.487 167.888 107.262 167.888C107.344 168.857 107.384 169.343 107.464 170.312ZM113.457 170.312C111.608 170.312 110.683 170.312 108.835 170.312C108.733 169.343 108.682 168.857 108.581 167.888C110.357 167.888 111.244 167.888 113.02 167.888C113.196 168.857 113.282 169.343 113.457 170.312ZM119.45 170.312C117.6 170.312 116.676 170.312 114.827 170.312C114.631 169.343 114.532 168.857 114.336 167.888C116.113 167.888 117 167.888 118.777 167.888C119.046 168.857 119.18 169.343 119.45 170.312ZM63.5682 173.544C61.6208 173.544 60.6486 173.544 58.7024 173.544C59.3556 172.575 59.6816 172.09 60.3348 171.12C62.2103 171.12 63.1468 171.12 65.021 171.12C64.4398 172.09 64.1488 172.574 63.5682 173.544ZM69.8791 173.544C67.9311 173.544 66.9596 173.544 65.0115 173.544C65.5717 172.575 65.8518 172.09 66.4108 171.12C68.2844 171.12 69.2221 171.12 71.097 171.12C70.6087 172.089 70.3643 172.574 69.8791 173.544ZM76.1875 173.544C74.2394 173.544 73.2673 173.544 71.3198 173.544C71.7846 172.575 72.0157 172.09 72.4817 171.12C74.3553 171.12 75.2918 171.12 77.166 171.12C76.7745 172.09 76.5778 172.574 76.1875 173.544ZM82.4965 173.544C80.5491 173.544 79.575 173.544 77.6276 173.544C77.9981 172.575 78.184 172.09 78.5532 171.12C80.4288 171.12 81.3652 171.12 83.2401 171.12C82.9422 172.09 82.7932 172.574 82.4965 173.544ZM88.8062 173.544C86.86 173.544 85.8847 173.544 83.9391 173.544C84.2154 172.575 84.3523 172.09 84.628 171.122C86.5029 171.122 87.4381 171.12 89.3129 171.12C89.1086 172.09 89.0086 172.574 88.8062 173.544ZM95.1126 173.544C93.1652 173.544 92.1931 173.544 90.2456 173.544C90.427 172.575 90.5175 172.09 90.6995 171.12C92.5731 171.12 93.5096 171.12 95.3839 171.12C95.2763 172.089 95.2209 172.574 95.1126 173.544ZM101.42 173.544C99.4742 173.544 98.5021 173.544 96.5553 173.544C96.6418 172.575 96.6864 172.09 96.773 171.12C98.646 171.12 99.5824 171.12 101.455 171.12C101.441 172.09 101.434 172.574 101.42 173.544ZM107.731 173.544C105.785 173.544 104.811 173.544 102.864 173.544C102.857 172.575 102.853 172.09 102.846 171.12C104.719 171.12 105.656 171.12 107.53 171.12C107.61 172.09 107.652 172.574 107.731 173.544ZM114.038 173.544C112.094 173.544 111.121 173.544 109.174 173.544C109.071 172.575 109.02 172.09 108.92 171.12C110.793 171.12 111.729 171.12 113.602 171.12C113.777 172.09 113.864 172.574 114.038 173.544ZM120.347 173.544C118.401 173.544 117.427 173.544 115.481 173.544C115.284 172.575 115.185 172.09 114.99 171.12C116.863 171.12 117.8 171.12 119.674 171.12C119.943 172.09 120.078 172.574 120.347 173.544ZM61.6329 176.775C59.5874 176.775 58.5662 176.775 56.5226 176.775C57.1752 175.806 57.5037 175.321 58.1575 174.352C60.1279 174.352 61.114 174.351 63.0857 174.351C62.5044 175.319 62.2128 175.806 61.6329 176.775ZM68.2564 176.775C66.2128 176.775 65.191 176.775 63.1474 176.775C63.7057 175.806 63.9858 175.321 64.5448 174.352C66.5171 174.352 67.502 174.352 69.4742 174.352C68.9872 175.32 68.7428 175.806 68.2564 176.775ZM74.8812 176.775C72.8363 176.775 71.8145 176.775 69.7696 176.775C70.2344 175.806 70.4668 175.321 70.9315 174.352C72.9038 174.352 73.8886 174.352 75.8597 174.352C75.4688 175.32 75.2727 175.806 74.8812 176.775ZM81.504 176.775C79.4592 176.775 78.4367 176.775 76.3919 176.775C76.7624 175.806 76.9483 175.321 77.3182 174.352C79.2905 174.352 80.2766 174.352 82.2476 174.352C81.9509 175.32 81.802 175.806 81.504 176.775ZM88.1269 176.775C86.084 176.775 85.0622 176.775 83.0186 176.775C83.2936 175.806 83.4337 175.321 83.7074 174.352C85.6784 174.352 86.6665 174.352 88.6349 174.352C88.4338 175.32 88.3313 175.806 88.1269 176.775ZM94.7491 176.775C92.7055 176.775 91.6844 176.775 89.6402 176.775C89.821 175.806 89.9133 175.321 90.0947 174.352C92.0651 174.352 93.0512 174.352 95.0229 174.352C94.9134 175.32 94.8586 175.806 94.7491 176.775ZM101.371 176.775C99.3284 176.775 98.3066 176.775 96.265 176.775C96.3515 175.806 96.3948 175.321 96.4814 174.352C98.4518 174.352 99.4379 174.352 101.407 174.352C101.394 175.32 101.387 175.806 101.371 176.775ZM107.999 176.775C105.954 176.775 104.932 176.775 102.888 176.775C102.883 175.806 102.878 175.321 102.871 174.352C104.842 174.352 105.829 174.352 107.798 174.352C107.879 175.32 107.918 175.806 107.999 176.775ZM114.622 176.775C112.579 176.775 111.556 176.775 109.515 176.775C109.412 175.806 109.36 175.321 109.259 174.352C111.23 174.352 112.214 174.352 114.185 174.352C114.359 175.32 114.448 175.806 114.622 176.775ZM121.243 176.775C119.201 176.775 118.178 176.775 116.133 176.775C115.938 175.806 115.84 175.321 115.643 174.352C117.614 174.352 118.599 174.352 120.571 174.352C120.839 175.32 120.974 175.806 121.243 176.775ZM59.6962 180.005C57.5552 180.005 56.4832 180.005 54.3428 180.005C54.996 179.036 55.3251 178.551 55.9783 177.583C58.0467 177.583 59.0806 177.583 61.1477 177.583C60.5684 178.551 60.2781 179.036 59.6962 180.005ZM66.6355 180.005C64.4958 180.005 63.4243 180.005 61.2834 180.005C61.8436 179.036 62.1224 178.551 62.6827 177.583C64.7498 177.583 65.7837 177.583 67.8534 177.583C67.3664 178.551 67.1213 179.036 66.6355 180.005ZM73.5729 180.005C71.4319 180.005 70.3611 180.005 68.2207 180.005C68.6855 179.036 68.9185 178.551 69.3845 177.583C71.4497 177.583 72.4849 177.583 74.5533 177.583C74.1618 178.551 73.9663 179.036 73.5729 180.005ZM80.4886 180.082C78.3444 180.082 77.2723 180.082 75.1269 180.082C75.5114 179.083 75.7011 178.583 76.0831 177.584C78.1528 177.584 79.1873 177.584 81.2557 177.584C80.9489 178.582 80.7961 179.083 80.4886 180.082ZM122.142 180.005C108.794 180.005 95.4443 180.005 82.0974 180.005C82.3718 179.036 82.5093 178.551 82.7856 177.583C95.6812 177.583 108.575 177.583 121.469 177.583C121.738 178.551 121.873 179.036 122.142 180.005ZM92.5419 185.329C102.669 185.329 112.794 185.329 122.919 185.329L120.361 181.201C110.579 181.201 104.741 181.201 94.9599 181.201L92.5419 185.329ZM124.874 170.312C123.024 170.312 122.098 170.312 120.249 170.312C119.966 169.343 119.827 168.857 119.545 167.888C121.321 167.888 122.21 167.888 123.987 167.888C124.342 168.856 124.517 169.343 124.874 170.312ZM126.055 173.544C124.108 173.544 123.135 173.544 121.187 173.544C120.906 172.575 120.766 172.09 120.484 171.12C122.357 171.12 123.295 171.12 125.171 171.12C125.523 172.09 125.701 172.574 126.055 173.544ZM127.237 176.775C125.193 176.775 124.17 176.775 122.126 176.775C121.844 175.806 121.705 175.321 121.423 174.352C123.396 174.352 124.379 174.352 126.351 174.352C126.705 175.32 126.881 175.806 127.237 176.775ZM128.419 180.005C126.278 180.005 125.206 180.005 123.065 180.005C122.783 179.036 122.642 178.551 122.361 177.583C124.43 177.583 125.463 177.583 127.532 177.583C127.886 178.551 128.064 179.036 128.419 180.005ZM130.295 170.312C128.445 170.312 127.52 170.312 125.67 170.312C125.303 169.343 125.118 168.857 124.753 167.888C126.529 167.888 127.418 167.888 129.195 167.888C129.634 168.857 129.855 169.343 130.295 170.312ZM131.762 173.544C129.814 173.544 128.841 173.544 126.895 173.544C126.527 172.575 126.343 172.09 125.977 171.12C127.851 171.12 128.785 171.12 130.662 171.12C131.101 172.089 131.322 172.574 131.762 173.544ZM133.228 176.775C131.183 176.775 130.161 176.775 128.118 176.775C127.75 175.806 127.566 175.321 127.199 174.352C129.17 174.352 130.156 174.352 132.127 174.352C132.569 175.32 132.787 175.806 133.228 176.775ZM134.694 180.005C132.552 180.005 131.481 180.005 129.34 180.005C128.974 179.036 128.79 178.551 128.424 177.583C130.491 177.583 131.527 177.583 133.594 177.583C134.034 178.551 134.253 179.036 134.694 180.005ZM135.716 170.312C133.866 170.312 132.943 170.312 131.092 170.312C130.64 169.343 130.413 168.857 129.961 167.888C131.738 167.888 132.626 167.888 134.404 167.888C134.929 168.857 135.192 169.343 135.716 170.312ZM137.467 173.544C135.521 173.544 134.547 173.544 132.6 173.544C132.147 172.575 131.921 172.089 131.468 171.12C133.343 171.12 134.279 171.12 136.154 171.12C136.679 172.09 136.943 172.574 137.467 173.544ZM139.22 176.775C137.174 176.775 136.153 176.775 134.109 176.775C133.656 175.806 133.431 175.321 132.977 174.352C134.949 174.352 135.935 174.352 137.906 174.352C138.43 175.32 138.695 175.806 139.22 176.775ZM140.97 180.005C138.829 180.005 137.757 180.005 135.616 180.005C135.164 179.036 134.939 178.551 134.485 177.583C136.554 177.583 137.587 177.583 139.656 177.583C140.181 178.551 140.445 179.036 140.97 180.005ZM141.137 170.312C139.288 170.312 138.363 170.312 136.513 170.312C135.976 169.343 135.707 168.857 135.169 167.888C136.945 167.888 137.832 167.888 139.61 167.888C140.223 168.857 140.527 169.343 141.137 170.312ZM143.174 173.544C141.228 173.544 140.254 173.544 138.307 173.544C137.769 172.575 137.5 172.09 136.962 171.12C138.835 171.12 139.774 171.12 141.647 171.12C142.258 172.09 142.565 172.574 143.174 173.544ZM145.21 176.775C143.166 176.775 142.145 176.775 140.101 176.775C139.563 175.806 139.295 175.321 138.756 174.352C140.727 174.352 141.713 174.352 143.684 174.352C144.295 175.32 144.6 175.806 145.21 176.775ZM147.246 180.005C145.105 180.005 144.035 180.005 141.893 180.005C141.356 179.036 141.087 178.551 140.548 177.583C142.616 177.583 143.651 177.583 145.72 177.583C146.33 178.551 146.635 179.036 147.246 180.005ZM146.561 170.312C144.71 170.312 143.784 170.312 141.936 170.312C141.311 169.343 140.999 168.857 140.375 167.888C142.153 167.888 143.041 167.888 144.819 167.888C145.515 168.857 145.863 169.343 146.561 170.312ZM148.88 173.544C146.934 173.544 145.958 173.544 144.012 173.544C143.388 172.575 143.077 172.09 142.455 171.12C144.328 171.12 145.265 171.12 147.14 171.12C147.837 172.09 148.185 172.574 148.88 173.544ZM151.202 176.775C149.158 176.775 148.135 176.775 146.09 176.775C145.467 175.806 145.156 175.321 144.532 174.352C146.505 174.352 147.49 174.352 149.462 174.352C150.159 175.32 150.506 175.806 151.202 176.775ZM153.522 180.005C151.381 180.005 150.31 180.005 148.167 180.005C147.544 179.036 147.232 178.551 146.609 177.583C148.679 177.583 149.713 177.583 151.782 177.583C152.478 178.551 152.825 179.036 153.522 180.005ZM151.98 170.312C150.132 170.312 149.206 170.312 147.357 170.312C146.648 169.343 146.295 168.857 145.583 167.888C147.361 167.888 148.248 167.888 150.027 167.888C150.808 168.857 151.199 169.343 151.98 170.312ZM154.586 173.544C152.64 173.544 151.665 173.544 149.718 173.544C149.012 172.575 148.656 172.09 147.948 171.12C149.822 171.12 150.758 171.12 152.632 171.12C153.413 172.09 153.804 172.574 154.586 173.544ZM157.192 176.775C155.148 176.775 154.126 176.775 152.082 176.775C151.372 175.806 151.019 175.321 150.31 174.352C152.281 174.352 153.267 174.352 155.238 174.352C156.02 175.32 156.41 175.806 157.192 176.775ZM159.798 180.005C157.657 180.005 156.586 180.005 154.443 180.005C153.735 179.036 153.38 178.551 152.672 177.583C154.741 177.583 155.775 177.583 157.843 177.583C158.625 178.551 159.014 179.036 159.798 180.005Z" fill="#D3D3D3"/>
</g>
<path d="M131.643 159.992H83.9672C84.3078 158.608 84.6197 157.503 84.8935 156.733C85.0316 156.346 85.2251 155.975 85.4741 155.623C86.3189 154.426 87.7653 153.408 89.6287 152.548C91.8531 151.519 94.6683 150.71 97.7547 150.069C101.034 149.397 104.611 148.912 108.094 148.562C108.33 148.541 108.563 148.516 108.798 148.495C112.672 148.134 116.394 147.935 119.397 147.839C123.543 147.696 126.338 147.726 126.338 147.726C126.338 147.726 126.562 148.083 126.954 148.796C127.874 150.487 129.714 154.193 131.643 159.992Z" fill="#1F3F6D"/>
<path d="M95.1216 82.198C95.0312 82.8091 94.872 83.3751 94.6466 83.9201L94.7816 82.3794C94.8956 82.3107 95.0095 82.2661 95.1216 82.198Z" fill="#FFE3CA"/>
<path d="M120.376 79.9106C120.376 79.9106 120.376 79.9106 120.376 79.931C120.33 79.9106 120.284 79.887 120.263 79.887C120.309 79.8877 120.33 79.9106 120.376 79.9106Z" fill="#EEBEA7"/>
<path d="M169.306 112.421C169.306 112.421 172.251 109.692 171.667 107.643C171.172 105.905 171.919 103.959 172.105 103.151C172.357 102.081 172.458 98.6065 173.257 98.7956C174.608 99.1241 174.296 104.67 174.462 105.852C174.629 107.033 178.21 103.078 179.431 102.871C180.654 102.659 186.87 108.959 184.101 111.393C181.332 113.821 177.512 114.806 177.109 115.331C176.706 115.855 174.808 117.297 174.808 117.297L169.306 112.421Z" fill="#F1B99E"/>
<path d="M178.649 103.282C178.649 103.282 187.626 96.4064 188.607 96.4477C189.592 96.4872 189.932 96.9991 189.118 97.6752C188.308 98.3532 180.641 104.574 180.641 104.574C180.641 104.574 192.631 98.2182 193.445 98.0762C193.917 97.9922 194.28 98.9013 193.876 99.3056C193.475 99.7054 182.318 106.725 182.318 106.725C182.318 106.725 193.522 100.809 194.237 100.893C194.863 100.969 195.309 102.002 194.509 102.497C193.707 102.992 183.617 109.071 183.617 109.071C183.617 109.071 192.046 105.282 192.607 105.706C192.948 105.968 193.434 106.543 191.232 107.453C189.025 108.363 184.227 111.269 184.227 111.269L178.649 103.282Z" fill="#F1B99E"/>
<path d="M114.555 73.9753V74.5865C114.508 74.475 114.464 74.3834 114.442 74.27C114.396 74.2478 114.396 74.2032 114.396 74.1784C114.442 74.1122 114.487 74.0453 114.555 73.9753Z" fill="#FFCB0C"/>
<path d="M107.806 77.6913C107.715 77.7123 107.6 77.7123 107.511 77.7123V77.6677C107.6 77.6913 107.715 77.6913 107.806 77.6913ZM114.555 73.9753V74.1574C114.508 74.2032 114.487 74.2242 114.442 74.27C114.193 74.5419 113.92 74.7902 113.649 75.0404C113.535 75.1314 113.445 75.2205 113.333 75.3116C113.467 75.1772 113.626 75.0175 113.764 74.8819C113.968 74.6781 114.17 74.4292 114.396 74.1784C114.442 74.1122 114.487 74.0453 114.555 73.9753Z" fill="#EEBEA7"/>
<path d="M119.741 66.1626C118.496 68.9262 116.978 71.4179 115.256 73.3883C115.031 73.6595 114.78 73.9307 114.555 74.158V73.9759C114.486 74.0453 114.441 74.1128 114.395 74.179C114.17 74.4298 113.967 74.6788 113.763 74.8825C113.625 75.0187 113.467 75.1779 113.332 75.3122C113.285 75.3358 113.241 75.3816 113.196 75.4262C113.127 75.4937 113.06 75.5624 112.991 75.5847C112.809 75.7432 112.63 75.8788 112.425 76.0144C112.176 76.1959 111.95 76.3537 111.702 76.49C111.633 76.5352 111.565 76.5797 111.521 76.6039C111.292 76.7383 111.068 76.8522 110.865 76.942C110.659 77.0559 110.433 77.1464 110.229 77.2145L110.207 77.2374C110.026 77.2832 109.89 77.3507 109.73 77.3959C109.684 77.4188 109.641 77.4417 109.594 77.4417C109.438 77.4863 109.278 77.5309 109.119 77.5551C109.075 77.5551 109.052 77.5767 109.006 77.5767H108.937C108.825 77.6009 108.69 77.6232 108.577 77.6461C108.463 77.6677 108.327 77.6677 108.215 77.6677C108.102 77.6913 107.986 77.6913 107.896 77.6913H107.874C107.852 77.7123 107.829 77.7123 107.806 77.6913C107.716 77.6913 107.601 77.6913 107.512 77.6677V77.7123C107.377 77.7123 107.24 77.6913 107.083 77.6677C106.923 77.6461 106.742 77.6232 106.582 77.6009C106.492 77.5767 106.403 77.5767 106.287 77.5551C106.198 77.5309 106.107 77.5309 106.016 77.4863C105.541 77.373 105.09 77.1915 104.613 76.942C104.477 76.8758 104.318 76.7854 104.182 76.695C103.435 76.2646 102.71 75.6528 101.962 74.8819C101.692 74.6119 101.442 74.2936 101.17 73.9753C100.015 72.5257 98.8618 70.6024 97.7961 68.1565C97.3434 67.136 96.9341 66.1396 96.5725 65.1885C97.1378 66.2982 96.1516 55.9465 96.3789 56.31C93.2995 50.4212 96.3687 55.2679 97.4586 52.3477C104.274 55.2233 117.521 60.1839 117.521 55.1552C117.521 55.1552 117.816 58.2129 118.157 61.3834C118.428 63.9878 118.723 66.6846 118.86 67.7032C118.859 67.7026 119.219 67.136 119.741 66.1626Z" fill="#F4C7B1"/>
<path d="M107.806 77.6913C107.715 77.7123 107.6 77.7123 107.511 77.7123V77.6677C107.6 77.6913 107.715 77.6913 107.806 77.6913ZM114.555 73.9753V74.1574C114.508 74.2032 114.487 74.2242 114.442 74.27C114.193 74.5419 113.92 74.7902 113.649 75.0404C113.535 75.1314 113.445 75.2205 113.333 75.3116C113.467 75.1772 113.626 75.0175 113.764 74.8819C113.968 74.6781 114.17 74.4292 114.396 74.1784C114.442 74.1122 114.487 74.0453 114.555 73.9753Z" fill="#EEBEA7"/>
<path d="M96.5712 65.1885C94.7581 61.61 91.8372 54.7713 92.3586 48.293C92.3586 48.2694 92.3586 48.2694 92.3586 48.2694C91.5443 42.9026 98.2252 33.2315 108.418 33.7294C118.608 33.2315 125.291 42.9026 124.475 48.2694V48.293C124.79 52.2108 123.839 56.2419 122.662 59.618C123.41 59.5931 124.133 59.6842 124.858 59.9337C128.913 61.2707 130.815 66.5477 129.094 71.6891C127.396 76.8522 122.707 79.9316 118.653 78.5959C116.773 77.9841 115.345 76.5129 114.554 74.5864V74.1574C114.779 73.9307 115.031 73.6589 115.255 73.3877C116.977 71.4173 118.495 68.9255 119.741 66.1619C119.219 67.136 118.902 68.3328 118.902 68.3328C118.765 67.3155 118.426 63.9872 118.155 61.3827C117.813 58.2123 117.52 55.1546 117.52 55.1546C117.52 60.1839 104.272 55.2227 97.4567 52.347L96.5712 65.1885Z" fill="#FFCB0C"/>
<path d="M114.555 73.9753V74.5865C114.555 75.0174 114.534 75.5382 114.555 76.1271C113.898 76.942 113.241 77.6225 112.562 78.1427C112.334 78.3241 112.108 78.4833 111.883 78.6412C111.702 78.7768 111.521 78.8882 111.338 78.9805H111.317C110.275 79.5687 109.233 79.8635 108.214 79.8864H107.692C107.624 79.8864 107.558 79.8864 107.511 79.8635V77.6665C107.6 77.69 107.715 77.69 107.806 77.69C107.829 77.711 107.852 77.711 107.873 77.69H107.895C108.01 77.711 108.101 77.711 108.214 77.711C108.35 77.711 108.508 77.69 108.644 77.6665C108.802 77.6448 108.984 77.6219 109.143 77.5996C109.233 77.5754 109.322 77.5754 109.438 77.5538C109.529 77.5296 109.618 77.5296 109.709 77.485C110.185 77.3717 110.637 77.1903 111.111 76.9407C111.249 76.8745 111.409 76.7841 111.542 76.6937C112.039 76.4219 112.516 76.0577 112.991 75.5828C113.061 75.5605 113.128 75.4917 113.197 75.4243C113.241 75.3797 113.285 75.3339 113.333 75.3103C113.467 75.176 113.626 75.0162 113.764 74.8806C113.968 74.6769 114.17 74.4279 114.396 74.1771C114.442 74.1122 114.487 74.0453 114.555 73.9753Z" fill="#A5735B"/>
<path d="M107.512 93.3849V154.695L118.09 154.243L126.788 153.858L125.903 143.145L124.929 131.163C123.525 131.753 121.939 132.454 120.421 133.135C120.829 128.401 121.01 124.053 120.738 120.496C119.674 107.269 118.021 96.4884 116.729 89.4448V89.4218C116.864 88.0633 116.683 86.5455 116.367 85.1418C116.323 84.8451 116.254 84.5535 116.186 84.281C116.095 83.9634 116.029 83.6699 115.938 83.3751C115.869 83.1478 115.801 82.9225 115.733 82.6965C115.688 82.5379 115.619 82.3794 115.576 82.2426C115.349 81.4951 115.123 80.9285 114.985 80.6121H114.941C115.123 81.4283 115.757 84.1461 116.548 88.4255C116.548 88.4255 116.548 88.4255 116.548 88.4491C116.03 90.7136 114.375 91.9817 112.335 92.6852C112.314 92.6852 112.27 92.7062 112.244 92.7062C110.843 93.1831 109.257 93.3632 107.74 93.3855C107.672 93.3849 107.581 93.4084 107.512 93.3849Z" fill="#0E538C"/>
<path d="M131.677 112.458C132.221 113.294 132.99 114.834 133.761 116.579C133.649 118.504 133.512 119.657 133.512 119.657C133.512 119.657 132.675 121.854 131.564 125.299C131.268 126.157 128.417 141.378 128.1 142.376C128.032 142.556 127.985 142.76 127.919 142.942C126.877 143.461 127.11 142.554 125.297 143.281C124.756 143.507 124.165 143.733 123.553 144.004C123.463 144.052 123.35 144.096 123.189 144.163C123.009 144.231 122.828 144.299 122.646 144.39C121.491 144.888 120.247 145.433 119.047 145.976C119.453 141.242 121.01 124.053 120.738 120.496C119.674 107.269 118.022 96.4891 116.73 89.4454V89.4225C116.661 89.0832 116.618 88.7667 116.549 88.4491C116.549 88.4255 116.549 88.4255 116.549 88.4255C115.757 84.1461 115.123 81.4289 114.941 80.6121H120.807V80.6586C122.437 80.5447 130.131 79.4618 135.386 84.4669C132.486 83.2211 128.643 84.3485 127.354 85.1424C126.808 85.4594 126.333 85.8211 125.924 86.2291C125.245 86.8632 124.726 87.5883 124.34 88.381C120.581 96.1498 130.091 110.055 131.677 112.458Z" fill="#00AAE5"/>
<path d="M132.105 159.992H117.528C117.681 158.134 117.874 156.208 118.089 154.244C118.307 152.136 118.567 149.993 118.816 147.839C118.898 147.096 118.984 146.356 119.066 145.615C119.066 145.615 119.071 145.615 119.077 145.61C120.847 144.962 123.175 141.953 125.726 140.946C125.787 140.925 125.843 140.9 125.904 140.879C126.632 140.63 127.355 142.645 128.098 142.376C128.577 147.437 130.283 154.041 132.105 159.992Z" fill="#00AAE5"/>
<path d="M107.512 79.8647V93.3855C107.581 93.409 107.672 93.3855 107.741 93.3855C109.257 93.3632 110.843 93.183 112.245 92.7062C112.271 92.7062 112.314 92.6852 112.336 92.6852C114.375 91.9817 116.03 90.7135 116.549 88.449C116.549 88.4255 116.549 88.4255 116.549 88.4255C115.757 84.1461 115.124 81.4289 114.942 80.6121H114.624V80.1824C114.624 79.9112 114.601 79.6616 114.601 79.4121C114.579 78.5965 114.579 77.8269 114.557 77.0788V76.1283C113.9 76.9432 113.243 77.6238 112.564 78.1439C112.337 78.3483 112.11 78.5061 111.886 78.6424C111.703 78.778 111.522 78.8894 111.342 78.9817H111.32C110.208 79.6164 109.122 79.8876 108.035 79.8876C107.853 79.8876 107.672 79.8876 107.512 79.8647Z" fill="#F4C7B1"/>
<path d="M172.489 109.566L173.013 110.499L173.029 110.517L177.122 117.751L177.754 118.864C177.754 118.864 176.514 119.364 174.562 120.19C172.786 120.94 170.428 121.926 167.873 123.033C167.168 123.345 166.466 123.655 165.737 123.962C160.767 126.167 155.535 128.521 152.916 130.027C147.201 133.291 142.445 134.431 139.548 134.371C136.666 134.295 130.344 117.234 129.357 113.141C128.356 109.066 124.658 101.557 122.008 94.4073C120.887 91.3693 121.211 88.6884 122.171 86.5602C123.448 83.675 125.856 81.8103 127.343 81.5123C127.955 81.3755 128.55 81.3169 129.13 81.3373C130.057 81.3411 130.931 81.5187 131.752 81.8364C139.795 84.9705 142.286 101.634 142.757 104.472C142.93 105.457 143.413 107.108 144.036 108.911C145.415 113.129 147.424 118.219 147.424 118.219C151.463 116.478 153.13 115.981 154.669 115.54C155.786 115.213 156.84 114.947 158.662 114.247C159.211 114.043 159.799 113.805 160.43 113.59C161.862 113.067 163.501 112.5 165.076 111.968C168.92 110.683 172.489 109.566 172.489 109.566Z" fill="#00AAE5"/>
<path d="M108.214 77.6677V79.8647C108.146 79.8876 108.102 79.8876 108.033 79.8876H107.51C106.491 79.8647 105.448 79.57 104.406 78.9817H104.385C104.204 78.8894 104.023 78.7774 103.84 78.6424C103.616 78.4845 103.391 78.3253 103.162 78.1439C102.483 77.6238 101.825 76.9426 101.169 76.1283C101.191 75.2453 101.169 74.4973 101.169 73.9765C101.441 74.2948 101.691 74.6125 101.96 74.8831C102.708 75.654 103.434 76.2665 104.181 76.6962C104.317 76.7866 104.476 76.8776 104.612 76.9432C105.089 77.1928 105.541 77.3742 106.015 77.4875C106.105 77.5321 106.196 77.5321 106.286 77.5563C106.403 77.5779 106.491 77.5779 106.581 77.6021C106.741 77.6244 106.922 77.6473 107.081 77.669C107.238 77.6925 107.375 77.7135 107.51 77.7135C107.6 77.7135 107.715 77.7135 107.805 77.6925C107.828 77.7135 107.851 77.7135 107.873 77.6925H107.894C107.985 77.6913 108.101 77.6913 108.214 77.6677Z" fill="#A5735B"/>
<path d="M108.214 93.3849V154.695L97.6363 154.243L88.9393 153.858L89.8229 143.145L90.7963 131.163C92.2007 131.753 93.7866 132.454 95.3049 133.135C94.8956 128.401 94.7173 124.053 94.9879 120.496C96.0517 107.269 97.7038 96.4884 98.9949 89.4448V89.4218C98.8612 88.0633 99.0426 86.5455 99.3584 85.1418C99.4023 84.8451 99.4717 84.5535 99.5404 84.281C99.6315 83.9634 99.6964 83.6699 99.7875 83.3751C99.8569 83.1478 99.9243 82.9225 99.9931 82.6965C100.038 82.5379 100.106 82.3794 100.151 82.2426C100.38 81.4951 100.604 80.9285 100.74 80.6121H100.784C100.604 81.4283 99.9683 84.1461 99.1769 88.4255C99.1769 88.4255 99.1769 88.4255 99.1769 88.4491C99.6964 90.7136 101.352 91.9817 103.391 92.6852C103.413 92.6852 103.458 92.7062 103.482 92.7062C104.884 93.1831 106.471 93.3632 107.986 93.3855C108.053 93.3849 108.146 93.4084 108.214 93.3849Z" fill="#0E538C"/>
<path d="M100.784 80.6115C100.603 81.4277 99.9676 84.1455 99.1763 88.4249C99.1763 88.4249 99.1763 88.4249 99.1763 88.4485C99.1088 88.7655 99.063 89.0825 98.9949 89.4219V89.4448C97.7038 96.4885 96.0517 107.269 94.9879 120.496C94.7167 124.052 94.8956 128.401 95.3049 133.135C93.7866 132.454 92.2007 131.753 90.7963 131.163C90.1858 130.891 89.595 130.665 89.0539 130.44C87.2395 129.714 86.2883 129.193 85.2474 128.671C85.1812 128.491 85.1341 128.288 85.066 128.107C84.749 127.11 84.4555 126.158 84.1613 125.299C83.0504 121.856 82.2133 119.658 82.2133 119.658C82.2133 119.658 82.0783 118.504 81.965 116.579C82.7347 114.834 83.505 113.294 84.0493 112.458C85.6332 110.056 95.1445 96.1504 91.3846 88.3816C91 87.589 90.4799 86.8639 89.8006 86.2298C89.3925 85.8217 88.9157 85.4601 88.372 85.1431C87.0841 84.3498 82.0044 85.2475 79.1059 86.4934C84.3606 81.4863 93.2894 80.5453 94.9198 80.6593V80.6128H100.784V80.6115ZM98.1959 159.992H83.6189C84.0569 158.562 84.4892 157.095 84.8922 155.623C86.1903 150.959 87.2643 146.224 87.6259 142.376C88.3688 142.645 89.0978 142.895 89.8255 143.144C92.4522 144.07 94.851 144.957 96.6584 145.615C96.8214 147.1 96.999 148.592 97.1728 150.069C97.3307 151.473 97.4924 152.869 97.6356 154.244C97.8502 156.208 98.0431 158.134 98.1959 159.992Z" fill="#00AAE5"/>
<path d="M108.214 79.8647V93.3855C108.146 93.409 108.054 93.3855 107.985 93.3855C106.47 93.3632 104.883 93.183 103.481 92.7062C103.458 92.7062 103.413 92.6852 103.391 92.6852C101.351 91.9817 99.6958 90.7135 99.1763 88.449C99.1763 88.4255 99.1763 88.4255 99.1763 88.4255C99.9676 84.1461 100.604 81.4289 100.784 80.6121H101.101V80.1824C101.101 79.9112 101.125 79.6616 101.125 79.4121C101.147 78.5965 101.147 77.8269 101.169 77.0788V76.1283C101.825 76.9432 102.483 77.6238 103.162 78.1439C103.391 78.3483 103.616 78.5061 103.84 78.6424C104.023 78.778 104.204 78.8894 104.385 78.9817H104.406C105.516 79.6164 106.607 79.8876 107.691 79.8876C107.873 79.8876 108.053 79.8876 108.214 79.8647Z" fill="#F4C7B1"/>
<path d="M114.464 139.816C114.305 140.812 113.649 141.559 113.649 141.559C113.649 141.559 114.033 142.872 113.151 143.733C113.151 143.733 113.445 144.978 112.29 145.794C112.29 145.794 112.562 147.017 111.655 147.539C111.655 147.539 109.684 147.788 108.962 147.653C108.054 147.448 103.819 146.475 100.197 145.568L102.121 137.482V137.46C102.96 136.894 103.751 136.371 104.001 136.214C104.613 135.85 106.697 135.965 108.846 136.643C110.932 137.301 113.265 138.229 113.921 138.591C114.261 138.773 114.599 138.842 114.464 139.816Z" fill="#EEA886"/>
<path d="M102.371 136.417L102.121 137.46V137.482L100.196 145.568L99.9021 146.815C99.9021 146.815 98.6549 146.339 96.6597 145.613C94.8491 144.956 92.4503 144.074 89.8229 143.146C89.0978 142.896 88.3714 142.646 87.6272 142.376C82.4851 140.608 77.0483 138.774 74.1039 138.094C67.6943 136.599 63.4346 134.199 61.3515 132.184C59.292 130.168 66.2669 113.363 68.3296 109.693C70.3681 106.024 72.7663 98.0068 75.6897 90.9638C76.9349 87.9729 78.9944 86.2298 81.1475 85.3245C84.048 84.078 87.0829 84.3492 88.3708 85.1424C88.9151 85.4595 89.3919 85.8211 89.7994 86.2292C90.4786 86.8632 90.9988 87.5884 91.3833 88.381C95.1432 96.1498 85.632 110.055 84.048 112.458C83.5037 113.294 82.7334 114.834 81.9637 116.579C80.1067 120.609 78.1134 125.705 78.1134 125.705C82.2572 127.179 83.8195 127.947 85.2462 128.671C86.2871 129.192 87.2382 129.714 89.0526 130.439C89.5937 130.665 90.1845 130.89 90.795 131.162C92.1995 131.753 93.7853 132.454 95.3037 133.134C98.9942 134.81 102.371 136.417 102.371 136.417Z" fill="#00AAE5"/>
<path d="M123.711 59.7383L123.516 50.8637C123.487 49.3828 123.516 47.916 123.305 46.5428C123.096 45.1499 122.718 43.7862 122.132 42.5238C120.981 39.9932 119.049 37.8573 116.624 36.5025C114.201 35.1268 111.382 34.5016 108.572 34.5131C105.762 34.5016 102.938 35.1268 100.524 36.5025C98.0934 37.8573 96.1625 39.9932 95.0076 42.5238C94.4258 43.7856 94.0482 45.1499 93.8388 46.5428C93.6281 47.9307 93.6491 49.3638 93.6293 50.8637L93.4307 59.7383H92.3185L92.1282 50.8637C92.1103 49.4083 92.0435 47.8759 92.2396 46.3283C92.4331 44.7953 92.8094 43.2661 93.4313 41.8279C94.6358 38.9268 96.8863 36.4675 99.6092 34.9122C102.336 33.3327 105.484 32.621 108.572 32.6051C111.663 32.621 114.808 33.3327 117.534 34.9122C120.258 36.4675 122.506 38.9268 123.708 41.8279C124.33 43.2661 124.71 44.7953 124.908 46.3283C125.101 47.888 125.037 49.3937 125.02 50.8637L124.827 59.7383H123.711Z" fill="#0E538C"/>
<path d="M93.2073 64.5569C91.2101 64.5569 90.7066 63.1252 90.7066 61.3566V55.6186C90.7066 53.852 91.2101 52.417 93.2073 52.417H93.6847V64.5569H93.2073Z" fill="#1F3F6D"/>
<path d="M94.7167 52.4177H93.6847V64.5576H94.7167V52.4177Z" fill="#00AAE5"/>
<path d="M124.24 64.5569C126.239 64.5569 126.746 63.1252 126.746 61.3566V55.6186C126.746 53.852 126.239 52.417 124.24 52.417H123.762V64.5569H124.24Z" fill="#1F3F6D"/>
<path d="M123.762 52.4177H122.73V64.5576H123.762V52.4177Z" fill="#00AAE5"/>
<path d="M109.312 75.6197V74.5062C113.919 74.5062 122.692 67.9597 122.692 64.5569H123.803C123.803 68.8644 114.098 75.6197 109.312 75.6197Z" fill="#CCE9FF"/>
<path d="M110.052 76.6179H108.569C107.338 76.6179 106.342 75.924 106.342 75.0627C106.342 74.2045 107.338 73.5112 108.569 73.5112H110.052C111.281 73.5112 112.278 74.2051 112.278 75.0627C112.277 75.924 111.281 76.6179 110.052 76.6179Z" fill="#1F3F6D"/>
<path d="M69.5882 15.621V24.4148L69.5354 36.3523L69.4647 50.7707L69.4202 61.4075L58.8234 50.7299L55.59 50.7185L12.711 50.5179C5.46675 49.1046 0 42.7294 0 35.0854V15.621C0 7.54663 6.10529 0.877914 13.9473 0L56.9275 0.197995C64.1431 1.62214 69.5882 7.98526 69.5882 15.621Z" fill="#00AAE5"/>
<path opacity="0.8" d="M56.2209 16.0431C56.2209 17.3208 55.187 18.3541 53.9137 18.3541H14.3885C13.1133 18.3541 12.0788 17.3208 12.0788 16.0431C12.0788 14.7673 13.1133 13.734 14.3885 13.734H53.9137C55.187 13.734 56.2209 14.7673 56.2209 16.0431ZM56.2209 24.6427C56.2209 25.9147 55.187 26.9543 53.9137 26.9543H14.3885C13.1133 26.9543 12.0788 25.9147 12.0788 24.6427C12.0788 23.3656 13.1133 22.3317 14.3885 22.3317H53.9137C55.187 22.3311 56.2209 23.3656 56.2209 24.6427ZM44.1459 33.2417C44.1459 34.5086 43.1082 35.5463 41.8324 35.5463H14.3859C13.1108 35.5463 12.0839 34.5086 12.0839 33.2417C12.0839 32.6031 12.3354 32.0289 12.7555 31.6094C13.1713 31.1905 13.7493 30.9269 14.3859 30.9269H41.8324C43.1082 30.9269 44.1459 31.964 44.1459 33.2417Z" fill="#CCE9FF"/>
</svg>
