<svg width="542" height="544" viewBox="0 0 542 544" fill="none" xmlns="http://www.w3.org/2000/svg">
<path d="M491.185 118.769L447.75 124.928L435.325 162.203L447.75 174.628L485.025 162.203L491.185 118.769Z" fill="#F7F7F7"/>
<path d="M438.405 171.549C436.706 169.85 436.706 167.088 438.405 165.389L456.989 146.805C458.689 145.106 461.45 145.106 463.149 146.805C464.848 148.504 464.848 151.265 463.149 152.964L444.564 171.549C442.865 173.248 440.104 173.248 438.405 171.549Z" fill="#D3D3D3"/>
<path d="M469.414 152.964C466.016 156.363 460.388 156.363 456.989 152.964C453.591 149.566 453.591 143.938 456.989 140.539C460.388 137.141 466.016 137.141 469.414 140.539C472.813 143.938 472.813 149.46 469.414 152.964Z" fill="#D3D3D3"/>
<path d="M410.475 174.628V180.788L429.06 199.372H435.219L447.644 174.522L435.219 162.097L410.475 174.628Z" fill="#FFBE55"/>
<path d="M366.297 127.265L370.12 134.274L394.97 140.433L400.705 134.274L395.608 115.265L398.263 102.415L381.059 98.9102L378.404 111.76L366.297 127.265Z" fill="#1F3F6D"/>
<path d="M381.059 98.9102L398.262 102.415L401.767 85.2108L385.413 77.3522L381.059 98.9102Z" fill="#2A94F4"/>
<path d="M355.147 268.4C345.695 266.489 339.536 257.143 341.447 247.692L366.297 127.265L400.705 134.38L375.961 254.701C373.944 264.259 364.704 270.312 355.147 268.4Z" fill="#1F3F6D"/>
<path d="M410.475 174.628L435.325 199.479L373.306 261.497C366.403 268.4 355.359 268.4 348.456 261.497C341.553 254.595 341.553 243.55 348.456 236.647L410.475 174.628Z" fill="#FFCB0C"/>
<path d="M441.06 213.072L464.848 207.231L473.344 241.32L449.556 247.161L441.06 213.072Z" fill="#1F3F6D"/>
<path d="M541.416 206.275L506.053 193.532C499.999 191.408 493.415 190.983 487.256 192.576C482.371 193.744 477.804 196.08 473.981 199.372L464.848 207.125L473.238 241.214L484.919 243.869C489.804 244.931 495.008 244.931 499.893 243.656C506.159 242.063 511.787 238.771 516.141 233.993L541.416 206.275Z" fill="#F7F7F7"/>
<path d="M529.203 219.656L515.079 210.735C506.371 205.426 495.433 205.532 486.831 211.054C484.813 212.328 484.176 215.09 485.45 217.107C485.663 217.426 485.875 217.638 486.087 217.851C487.574 219.337 489.804 219.55 491.503 218.488C497.238 214.771 504.566 214.665 510.406 218.275L523.15 226.346L529.203 219.656Z" fill="#D3D3D3"/>
<path d="M443.502 212.435L451.998 246.524L362.474 268.719C353.023 271.055 343.571 265.321 341.235 255.869C338.899 246.418 344.633 236.966 354.085 234.63L443.502 212.435Z" fill="#2A94F4"/>
<path d="M191.515 136.868L144.258 163.842L97 136.868L144.258 110L191.515 136.868Z" fill="#FFCB0C"/>
<path d="M144.258 163.842L114.947 147.063L97 157.258L144.258 184.232L191.515 157.258L173.568 147.063L144.258 163.842Z" fill="#4EA3FB"/>
<path d="M144.258 184.232L114.947 167.452L97 177.647L144.258 204.621L191.515 177.647L173.568 167.452L144.258 184.232Z" fill="#1F3F6D"/>
<path d="M310.65 409.324H195.533C190.117 409.324 185.763 404.969 185.763 399.553C185.763 394.137 190.117 389.783 195.533 389.783H310.65C316.066 389.783 320.42 394.137 320.42 399.553C320.42 405.076 316.066 409.324 310.65 409.324Z" fill="#D3D3D3"/>
<path d="M229.205 522.276V532.046H328.286V522.276H229.205Z" fill="#0E538C"/>
<path d="M238.436 530.069C239.286 535.167 235.888 539.946 230.79 540.795C225.693 541.645 220.914 538.247 220.064 533.149C219.215 528.052 222.613 523.273 227.71 522.423C232.808 521.574 237.587 524.972 238.436 530.069Z" fill="#0E538C"/>
<path d="M283.145 402.952H273.375V526.246H283.145V402.952Z" fill="#0E538C"/>
<path d="M337.518 530.069C338.368 535.167 334.969 539.946 329.872 540.795C324.774 541.645 319.996 538.247 319.146 533.149C318.296 528.052 321.695 523.273 326.792 522.423C331.89 521.574 336.668 524.972 337.518 530.069Z" fill="#0E538C"/>
<path d="M340.916 409.323H232.065C224.631 409.323 219.321 402.102 221.445 394.775L273.375 215.727C274.756 210.948 279.11 207.656 283.995 207.656H392.74C400.174 207.656 405.484 214.877 403.36 222.205L351.536 401.253C350.155 406.031 345.801 409.323 340.916 409.323Z" fill="#D3D3D3"/>
<path d="M325.943 409.323H231.215C223.781 409.323 218.471 402.102 220.595 394.775L272.525 215.727C273.906 210.948 278.26 207.656 283.145 207.656H377.873C385.307 207.656 390.616 214.877 388.492 222.205L336.562 401.253C335.182 406.031 330.828 409.323 325.943 409.323Z" fill="#F2F2F2"/>
<path d="M340.81 409.324H225.693C220.277 409.324 215.923 404.969 215.923 399.553C215.923 394.137 220.277 389.783 225.693 389.783H340.81C346.226 389.783 350.58 394.137 350.58 399.553C350.58 405.076 346.226 409.324 340.81 409.324Z" fill="#D3D3D3"/>
<path d="M247.676 257.356L224.1 325.216L229.622 338.596L261.375 332.543L270.402 259.905L247.676 257.356Z" fill="#FFE3CA"/>
<path d="M261.906 224.329C261.906 224.329 243.321 234.842 239.18 269.675L263.817 284.33L261.906 224.329Z" fill="#2A94F4"/>
<path d="M293.765 210.948L261.906 224.329L236.843 336.048L320.845 369.181L365.554 241.745C365.554 241.745 358.226 215.089 316.278 208.399L293.765 210.948Z" fill="#2A94F4"/>
<path d="M378.616 342.207C378.51 340.72 377.66 331.906 377.342 330.525L363.536 241.957C360.881 229.851 347.182 223.691 336.35 229.745C328.385 234.205 324.774 243.763 327.854 252.258L344.315 328.295L378.616 342.207Z" fill="#FFE3CA"/>
<path d="M359.819 323.198L266.154 315.87L261.481 332.543L351.642 363.022C365.554 367.694 379.678 356.756 378.616 342.207C377.873 332.118 369.908 324.047 359.819 323.198Z" fill="#FFE3CA"/>
<path d="M354.085 226.984C354.085 226.984 366.085 232.187 371.182 263.09L329.022 276.046C329.022 276.046 301.411 245.143 330.934 224.541L354.085 226.984Z" fill="#2A94F4"/>
<path d="M236.737 333.499C240.135 342.738 257.552 343.057 266.685 339.658C275.924 336.26 285.375 330.95 281.871 321.711C278.472 312.472 263.074 307.056 253.091 309.286C240.879 312.153 233.233 324.366 236.737 333.499Z" fill="#FFE3CA"/>
<path d="M287.712 346.03L220.808 337.428L221.763 329.888L288.667 338.49C290.791 338.809 292.172 340.614 291.96 342.738C291.641 344.862 289.729 346.349 287.712 346.03Z" fill="#FFCB0C"/>
<path d="M229.622 338.596L141.054 327.233C135.956 326.596 131.921 322.561 131.177 317.463L121.832 253.214C120.983 247.48 125.868 242.594 131.496 243.338L212.843 253.745C216.241 254.17 218.896 256.825 219.321 260.223L229.622 338.596Z" fill="#FFCB0C"/>
<path d="M180.453 294.419C179.816 299.091 175.674 302.277 171.001 301.746C166.329 301.109 163.143 296.967 163.674 292.295C164.311 287.622 168.453 284.436 173.125 284.967C177.798 285.604 181.09 289.852 180.453 294.419Z" fill="white"/>
<path d="M123.744 508.299L100.699 517.857L86.1501 518.919C79.4596 519.45 73.9374 524.229 72.4506 530.813L71.8135 533.893L150.612 543.769L152.204 512.016L123.744 508.299Z" fill="#FFCB0C"/>
<path d="M152.311 512.016L160.063 477.396L131.496 473.573L123.744 508.299L152.311 512.016Z" fill="#FFE3CA"/>
<path d="M320.739 369.181C320.739 369.181 318.509 388.297 284.207 390.845H201.799L162.93 499.272L122.045 492.688L162.93 333.499L256.596 343.906L320.739 369.181Z" fill="#1F3F6D"/>
<path d="M57.6893 446.068L33.0516 442.457L19.9894 435.873C14.0424 432.899 6.71482 434.174 2.14835 439.059L0.0244141 441.395L62.5744 490.352L80.203 463.909L57.6893 446.068Z" fill="#FFCB0C"/>
<path d="M80.4153 463.909L101.867 436.616L79.3534 418.563L57.6892 446.068L80.4153 463.909Z" fill="#FFE3CA"/>
<path d="M236.843 336.048L173.338 317.038C170.683 316.189 168.028 315.339 165.479 314.277C159.957 312.153 146.151 309.286 135.425 325.64C121.62 346.667 66.6099 426.103 66.6099 426.103L100.168 450.846L173.444 357.393C179.603 348.898 189.48 343.906 199.887 343.906L256.596 343.8L236.843 336.048Z" fill="#0E538C"/>
<path d="M318.509 176.115C319.677 173.991 339.323 138.946 321.27 130.132C321.27 130.132 318.934 111.654 298.225 113.672C277.517 115.689 283.145 121.742 269.977 118.769C256.808 115.795 244.383 122.592 245.339 133.53C246.295 144.575 254.791 149.247 269.977 146.593C285.163 143.938 297.163 145.955 297.163 145.955L309.801 149.672L318.509 176.115Z" fill="#FFCB0C"/>
<path d="M321.058 214.028L319.465 169.531L288.561 180.469L291.004 216.151C291.535 224.435 296.207 230.913 304.491 230.276L307.04 230.063C315.323 229.532 321.589 222.417 321.058 214.028Z" fill="#FFE3CA"/>
<path d="M316.81 175.69C316.81 175.69 322.651 212.859 290.898 214.983L289.517 197.355L316.81 175.69Z" fill="#FCD2B1"/>
<path d="M290.579 206.7H291.641C307.464 205.957 319.677 192.576 318.934 176.752L317.447 144.469C317.234 140.327 313.73 137.247 309.694 137.353L271.995 139.159C264.667 139.477 259.039 145.743 259.357 153.071L260.631 179.62C261.375 195.231 274.756 207.443 290.579 206.7Z" fill="#FFE3CA"/>
<path d="M311.818 166.982C312.031 172.292 316.597 176.434 321.907 176.221C327.217 176.009 331.359 171.443 331.146 166.133C330.934 160.823 326.367 156.681 321.058 156.894C315.642 157.106 311.5 161.566 311.818 166.982Z" fill="#FFE3CA"/>
<path d="M307.146 141.07L309.057 177.177C309.27 180.469 307.889 183.761 305.234 185.567C303.535 186.735 302.154 188.328 299.181 187.903C290.579 186.629 294.508 180.257 277.092 181.213C261.162 182.062 262.331 190.983 262.331 190.983C262.331 190.983 265.41 207.868 287.287 208.611C309.163 209.461 320.102 195.549 317.553 177.177L315.429 139.053L307.146 141.07Z" fill="#FFCB0C"/>
<path d="M260.419 147.124C260.419 147.124 270.614 148.716 285.375 145.106C300.137 141.495 311.818 153.389 311.818 153.389C311.818 153.389 315.004 158.911 315.748 158.699C316.491 158.593 321.057 156.787 321.057 156.787L320.845 140.115L310.013 131.725L280.065 130.451L262.331 134.38L260.419 147.124Z" fill="#FFCB0C"/>
<path d="M300.24 68.2505L298.67 62.2965C298.402 61.28 297.79 60.4318 296.872 59.8972C295.954 59.3626 294.915 59.2486 293.898 59.5167L293.027 59.7465C289.996 53.5564 285.139 48.3916 279.137 44.7715L279.045 44.7181C275.283 42.5263 271.238 41.0302 267.041 40.4287L277.497 37.671C278.109 38.5191 278.866 39.329 279.784 39.8636C281.435 40.8258 283.461 41.1458 285.257 40.5944C287.145 40.0965 288.696 38.9107 289.659 37.2591C290.621 35.6074 290.941 33.5815 290.389 31.7854C289.891 29.8976 288.706 28.3464 287.054 27.3842C285.402 26.4219 283.376 26.102 281.58 26.6534C279.692 27.1513 278.141 28.337 277.179 29.9887C276.645 30.9063 276.293 31.9308 276.271 33.0239L257.393 38.0032L257.239 37.4223C256.971 36.4057 256.359 35.5576 255.442 35.023C254.524 34.4884 253.484 34.3743 252.468 34.6424L246.422 36.1593C245.406 36.4275 244.557 37.0395 244.023 37.9571C243.488 38.8747 243.374 39.9143 243.642 40.9309L243.796 41.5118L224.917 46.491C224.305 45.6428 223.548 44.8329 222.63 44.2983C220.979 43.3361 218.953 43.0161 217.157 43.5675C213.236 44.6017 210.937 48.5474 211.971 52.4683C212.469 54.3561 213.655 55.9072 215.306 56.8695C216.958 57.8318 218.984 58.1517 220.78 57.6003C223.83 56.796 225.999 54.1269 226.143 51.1379L236.599 48.3802C233.282 51.1187 230.41 54.3615 228.218 58.1236C224.69 64.1798 223.066 70.9764 223.52 78.0012L222.504 78.2693C220.471 78.8055 219.188 81.0078 219.724 83.0408L221.294 88.9948C221.562 90.0113 222.175 90.8595 223.092 91.3941C224.01 91.9287 225.049 92.0428 226.066 91.7747L232.02 90.2043C234.053 89.6681 235.336 87.4658 234.8 85.4328L233.229 79.4788C232.961 78.4623 232.349 77.6141 231.432 77.0795C230.514 76.5449 229.474 76.4308 228.458 76.6989L228.313 76.7372C228.031 64.7742 234.897 53.4111 245.886 48.2604C246.146 48.6578 246.552 49.0168 246.919 49.2307C247.836 49.7653 248.876 49.8794 249.892 49.6112L255.846 48.0409C257.444 47.6195 258.429 46.3501 258.665 44.8899C270.766 43.9506 282.396 50.3576 287.998 60.9953L287.562 61.1102C285.529 61.6464 284.246 63.8487 284.782 65.8817L286.352 71.8357C286.621 72.8522 287.233 73.7004 288.15 74.235C289.068 74.7696 290.107 74.8837 291.124 74.6156L297.078 73.0452C299.493 72.4858 300.723 70.3753 300.24 68.2505ZM230.015 85.8406L225.803 86.9513L224.693 82.74L228.904 81.6292L230.015 85.8406ZM282.913 31.1169C283.494 30.9637 284.205 31.0091 284.755 31.3299C285.306 31.6506 285.749 32.1549 285.849 32.8275C286.002 33.4084 285.957 34.1193 285.636 34.6699C285.315 35.2205 284.811 35.6641 284.139 35.7639C283.558 35.9171 282.847 35.8716 282.296 35.5508C281.746 35.2301 281.302 34.7258 281.202 34.0532C281.049 33.4723 281.094 32.7614 281.415 32.2108C281.828 31.7137 282.279 31.3618 282.913 31.1169ZM219.608 52.8615C219.027 53.0147 218.316 52.9693 217.766 52.6485C217.215 52.3278 216.771 51.8235 216.672 51.1508C216.327 49.8439 217.075 48.5592 218.382 48.2145C218.963 48.0613 219.674 48.1068 220.225 48.4275C220.775 48.7483 221.219 49.2526 221.319 49.9252C221.663 51.2322 220.861 52.6086 219.608 52.8615ZM249.683 44.6961L248.573 40.4848L252.784 39.374L253.895 43.5854L249.683 44.6961ZM291.06 69.6621L289.949 65.4508L294.161 64.34L295.271 68.5514L291.06 69.6621Z" fill="#0E538C"/>
</svg>
